<svg width="264" height="237" viewBox="0 0 264 237" fill="none" xmlns="http://www.w3.org/2000/svg">
<path fill-rule="evenodd" clip-rule="evenodd" d="M84.4838 91.5121C84.4838 118.782 106.589 140.889 133.857 140.889C161.125 140.889 183.23 118.782 183.23 91.5121C183.23 64.2419 161.125 42.1351 133.857 42.1351C106.589 42.1351 84.4838 64.2419 84.4838 91.5121ZM133.857 13.0898C90.5489 13.0898 55.4407 48.2007 55.4407 91.5121C55.4407 134.823 90.5489 169.934 133.857 169.934C177.165 169.934 212.273 134.823 212.273 91.5121C212.273 48.2007 177.165 13.0898 133.857 13.0898Z" fill="#E4ECF4"/>
<rect x="120.562" y="61.4275" width="27.2965" height="21.375" fill="white" stroke="black" stroke-width="1.4"/>
<path d="M111.161 40.1844C109.977 35.9448 111.654 32.9825 112.641 32.0312C112.693 34.2079 113.834 41.403 114.397 44.7284C114.116 45.0002 112.345 44.424 111.161 40.1844Z" fill="white" stroke="black" stroke-width="1.4"/>
<path d="M157.262 40.1844C158.446 35.9448 156.769 32.9825 155.782 32.0312C155.782 34.9335 154.611 41.7053 154.025 44.7284C154.307 45.0002 156.078 44.424 157.262 40.1844Z" fill="white" stroke="black" stroke-width="1.4"/>
<path d="M155.672 25.0258C155.105 18.5522 151.059 6.06738 134.119 6.06738C117.179 6.06738 113.318 18.5522 112.75 25.0258C112.059 32.9194 113.53 41.2908 115.137 49.0707C117.001 58.0951 119.755 67.1043 134.119 67.1043C148.482 67.1043 151.422 58.0951 153.286 49.0707C154.893 41.2908 156.364 32.9194 155.672 25.0258Z" fill="white" stroke="black" stroke-width="1.4"/>
<path d="M110.67 29.9613C111.301 21.4969 115.802 5.17285 134.644 5.17285C153.485 5.17285 157.78 21.4969 158.411 29.9613H127.884L121.228 22.1015V29.9613H110.67Z" fill="black"/>
<path d="M137.627 9.71191C146.678 10.5904 150.381 18.2262 151.292 22.0104" stroke="white" stroke-width="1.4" stroke-linecap="round"/>
<ellipse cx="125.328" cy="34.7634" rx="0.910999" ry="1.822" fill="black"/>
<ellipse cx="143.094" cy="34.7634" rx="0.910999" ry="1.822" fill="black"/>
<path d="M130.868 44.6506L134.541 42.8145L138.213 44.6506" stroke="black" stroke-width="1.4" stroke-linecap="round"/>
<path d="M125.328 51.1621C125.875 53.1618 128.28 56.9361 133.527 56.0363" stroke="black" stroke-width="1.4" stroke-linecap="round"/>
<path d="M141.129 6.93611C143.808 7.57167 149.005 8.5567 148.362 5.50603C147.558 1.69269 142.334 1.21603 141.932 3.59936" stroke="black" stroke-width="1.4" stroke-linecap="round"/>
<path d="M119.862 77.1256V61.6387C120.788 62.4453 121.447 65.7908 130.97 66.9623C135.2 67.4826 143.467 66.4784 147.17 62.6066C148.559 61.1547 148.559 63.5745 148.559 63.5745L119.862 77.1256Z" fill="black"/>
<path d="M131.939 74.1368L99.5401 78.2975C95.702 78.7904 92.992 82.3039 93.49 86.1414L102.799 157.869C103.257 161.401 106.295 164.026 109.857 163.967L132.821 163.586L155.79 163.967C159.35 164.026 162.387 161.404 162.847 157.874L172.213 86.0676C172.715 82.2218 169.994 78.7012 166.146 78.217L133.704 74.1345C133.118 74.0608 132.525 74.0615 131.939 74.1368Z" fill="black"/>
<path d="M87.6704 86.2659L87.6705 86.2659L87.6752 86.2544C90.144 80.2551 96.2756 77.8765 101.667 80.1596C107.051 82.4396 109.7 88.5228 107.26 94.5131L107.228 94.5677L107.067 94.8465C106.927 95.0911 106.72 95.4506 106.455 95.9106C105.926 96.8306 105.166 98.1525 104.244 99.7604C102.399 102.976 99.9046 107.335 97.3043 111.91C92.1109 121.046 86.4752 131.078 84.7745 134.544C83.1632 137.828 80.8217 139.557 78.2907 139.914C75.835 140.261 73.0448 139.339 70.3673 136.998L75.056 115.43L87.6704 86.2659Z" fill="white" stroke="black" stroke-width="1.4"/>
<path d="M49.394 106.423C46.8033 102.558 47.8364 97.3249 51.7015 94.7342C55.4136 92.246 60.4226 93.0891 63.1157 96.6553L84.1798 124.549C87.3478 128.744 86.4641 134.721 82.2176 137.82C77.9009 140.97 71.8306 139.897 68.8553 135.458L49.394 106.423Z" fill="white" stroke="black" stroke-width="1.4"/>
<path d="M40.7739 96.3948C39.654 95.5059 38.0064 95.8159 37.2861 97.051C36.6982 98.0594 36.9403 99.3466 37.8546 100.072L41.6542 103.089C42.2282 103.544 42.8664 103.913 43.5481 104.182L47.6177 105.788C48.6943 106.213 49.9199 105.789 50.5029 104.789C51.2261 103.549 50.6743 101.956 49.3388 101.428L45.8738 100.061C45.2377 99.8094 44.6422 99.4657 44.1066 99.0405L40.7739 96.3948Z" fill="white" stroke="black" stroke-width="1.4"/>
<path d="M40.8493 87.8673C40.0595 86.6754 38.3968 86.4603 37.3297 87.4119C36.4586 88.1888 36.2905 89.4878 36.9353 90.4608L39.615 94.5049C40.0198 95.1158 40.5127 95.6636 41.0777 96.1304L44.4504 98.9175C45.3426 99.6547 46.6394 99.6303 47.5032 98.8599C48.5747 97.9044 48.5429 96.2187 47.4362 95.3042L44.5646 92.9312C44.0374 92.4956 43.5775 91.9845 43.1998 91.4144L40.8493 87.8673Z" fill="white" stroke="black" stroke-width="1.4"/>
<path d="M56.9525 82.5259C56.6503 80.8313 58.0028 79.2959 59.722 79.3819C60.9675 79.4442 62.0051 80.3582 62.224 81.5859L63.4191 88.2875C63.5737 89.1546 63.5429 90.0447 63.3287 90.899L62.6223 93.7162C62.309 94.9662 61.1558 95.8204 59.8688 95.756C58.1692 95.6709 56.9712 94.0537 57.3851 92.4031L57.8637 90.494C58.0601 89.7109 58.0883 88.8952 57.9466 88.1004L56.9525 82.5259Z" fill="white" stroke="black" stroke-width="1.4"/>
<path d="M44.4932 80.2711C43.7795 78.9531 42.353 78.8368 41.407 80.0193C40.5686 81.0673 40.4115 82.7691 41.0454 83.9356L44.1511 89.6504C44.3895 90.0889 44.6536 90.4989 44.9411 90.8767L48.6357 95.7319C49.365 96.6902 50.537 96.7073 51.3755 95.7717C52.385 94.6455 52.5018 92.6221 51.6239 91.4684L48.3288 87.1383C48.059 86.7837 47.8113 86.3986 47.5882 85.9865L44.4932 80.2711Z" fill="white" stroke="black" stroke-width="1.4"/>
<path d="M54.5711 85.3377L54.5528 85.3027L54.5381 85.2646L51.6154 77.6862C51.1289 76.4249 49.8896 76.1047 48.8666 76.9759C47.8711 77.8238 47.453 79.4852 47.9264 80.7126L50.8777 88.3648L55.4011 97.0308C55.9522 98.0866 57.0861 98.2843 58.0215 97.4877C59.0943 96.5741 59.4759 94.7344 58.8439 93.5235L54.5711 85.3377Z" fill="white" stroke="black" stroke-width="1.4"/>
<circle cx="54.6499" cy="100.497" r="9.64201" fill="white" stroke="black" stroke-width="1.4"/>
<path d="M176.468 86.2659L176.468 86.2659L176.463 86.2544C173.994 80.2551 167.863 77.8765 162.471 80.1596C157.087 82.4396 154.438 88.5228 156.879 94.5131L156.91 94.5677L157.071 94.8465C157.212 95.0911 157.419 95.4506 157.683 95.9106C158.212 96.8306 158.972 98.1525 159.894 99.7604C161.739 102.976 164.234 107.335 166.834 111.91C172.027 121.046 177.663 131.078 179.364 134.544C180.975 137.828 183.316 139.557 185.848 139.914C188.303 140.261 191.093 139.339 193.771 136.998L189.082 115.43L176.468 86.2659Z" fill="white" stroke="black" stroke-width="1.4"/>
<path d="M214.744 106.423C217.335 102.558 216.302 97.3249 212.436 94.7342C208.724 92.246 203.715 93.0891 201.022 96.6553L179.958 124.549C176.79 128.744 177.674 134.721 181.92 137.82C186.237 140.97 192.307 139.897 195.283 135.458L214.744 106.423Z" fill="white" stroke="black" stroke-width="1.4"/>
<path d="M223.364 96.3948C224.484 95.5059 226.132 95.8159 226.852 97.051C227.44 98.0594 227.198 99.3466 226.283 100.072L222.484 103.089C221.91 103.544 221.272 103.913 220.59 104.182L216.52 105.788C215.444 106.213 214.218 105.789 213.635 104.789C212.912 103.549 213.464 101.956 214.799 101.428L218.264 100.061C218.9 99.8094 219.496 99.4657 220.031 99.0405L223.364 96.3948Z" fill="white" stroke="black" stroke-width="1.4"/>
<path d="M223.289 87.8673C224.079 86.6754 225.741 86.4603 226.808 87.4119C227.68 88.1888 227.848 89.4878 227.203 90.4608L224.523 94.5049C224.118 95.1158 223.625 95.6636 223.061 96.1304L219.688 98.9175C218.796 99.6547 217.499 99.6303 216.635 98.8599C215.563 97.9044 215.595 96.2187 216.702 95.3042L219.574 92.9312C220.101 92.4956 220.561 91.9845 220.938 91.4144L223.289 87.8673Z" fill="white" stroke="black" stroke-width="1.4"/>
<path d="M207.185 82.5259C207.488 80.8313 206.135 79.2959 204.416 79.3819C203.17 79.4442 202.133 80.3582 201.914 81.5859L200.719 88.2875C200.564 89.1546 200.595 90.0447 200.809 90.899L201.516 93.7162C201.829 94.9662 202.982 95.8204 204.269 95.756C205.969 95.6709 207.167 94.0537 206.753 92.4031L206.274 90.494C206.078 89.7109 206.05 88.8952 206.191 88.1004L207.185 82.5259Z" fill="white" stroke="black" stroke-width="1.4"/>
<path d="M219.645 80.2711C220.358 78.9531 221.785 78.8368 222.731 80.0193C223.569 81.0673 223.726 82.7691 223.093 83.9356L219.987 89.6504C219.748 90.0889 219.484 90.4989 219.197 90.8767L215.502 95.7319C214.773 96.6902 213.601 96.7073 212.762 95.7717C211.753 94.6455 211.636 92.6221 212.514 91.4684L215.809 87.1383C216.079 86.7837 216.327 86.3986 216.55 85.9865L219.645 80.2711Z" fill="white" stroke="black" stroke-width="1.4"/>
<path d="M209.567 85.3377L209.585 85.3027L209.6 85.2646L212.523 77.6862C213.009 76.4249 214.248 76.1047 215.271 76.9759C216.267 77.8238 216.685 79.4852 216.212 80.7126L213.26 88.3648L208.737 97.0308C208.186 98.0866 207.052 98.2843 206.116 97.4877C205.044 96.5741 204.662 94.7344 205.294 93.5235L209.567 85.3377Z" fill="white" stroke="black" stroke-width="1.4"/>
<circle r="9.64201" transform="matrix(-1 0 0 1 209.488 100.497)" fill="white" stroke="black" stroke-width="1.4"/>
<rect x="121.327" y="93.1826" width="13.4113" height="5.74771" fill="white"/>
<rect x="115.579" y="93.1826" width="5.74771" height="5.74771" fill="#FF3366"/>
<rect x="116.539" y="94.1406" width="3.83181" height="3.83181" fill="white"/>
<rect x="62.8676" y="179.453" width="20.6329" height="31.3185" rx="10.3164" transform="rotate(35.435 62.8676 179.453)" fill="white" stroke="black" stroke-width="1.4"/>
<rect x="-0.256218" y="0.956218" width="23.165" height="35.0786" rx="11.5825" transform="matrix(-0.866025 0.5 0.5 0.866025 208.973 192.882)" fill="white" stroke="black" stroke-width="1.4"/>
<path d="M77.1741 181.348C75.7065 180.141 76.0106 177.813 77.7392 177.023C78.6338 176.614 79.6833 176.751 80.4428 177.376L82.9833 179.467C84.8445 180.998 85.8971 183.301 85.8375 185.711L85.756 189C85.7317 189.983 85.1486 190.867 84.254 191.276C82.5254 192.066 80.5664 190.773 80.6135 188.873L80.6641 186.83C80.704 185.216 79.9988 183.673 78.7519 182.647L77.1741 181.348Z" fill="white" stroke="black" stroke-width="1.4"/>
<path d="M193.609 194.352C195.414 193.133 195.32 190.444 193.433 189.355C192.457 188.791 191.245 188.834 190.31 189.465L187.27 191.517C185.022 193.034 183.597 195.501 183.407 198.207L183.15 201.866C183.071 202.991 183.641 204.062 184.617 204.626C186.504 205.715 188.879 204.452 189.032 202.279L189.192 200.006C189.316 198.235 190.249 196.62 191.72 195.626L193.609 194.352Z" fill="white" stroke="black" stroke-width="1.4"/>
<path d="M79.2747 191.807C76.9793 197.968 70.7696 201.181 65.5038 199.219C60.2381 197.257 57.6449 190.764 59.9402 184.604C62.2356 178.443 68.4453 175.23 73.7111 177.192C78.9769 179.154 81.5701 185.647 79.2747 191.807Z" fill="white" stroke="black" stroke-width="1.4"/>
<path d="M190.051 205.693C191.957 212.807 198.548 217.066 204.651 215.43C210.755 213.795 214.333 206.811 212.427 199.697C210.521 192.583 203.93 188.324 197.826 189.96C191.723 191.595 188.145 198.579 190.051 205.693Z" fill="white" stroke="black" stroke-width="1.4"/>
<path d="M75.1282 195.513C76.9079 194.846 78.7715 196.273 78.5915 198.165C78.4983 199.145 77.8549 199.985 76.9338 200.33L73.8531 201.485C71.5961 202.331 69.0753 202.091 67.0183 200.835L64.2107 199.12C63.3713 198.607 62.8978 197.66 62.991 196.681C63.171 194.789 65.2703 193.739 66.8923 194.73L68.636 195.795C70.014 196.637 71.7028 196.797 73.2149 196.231L75.1282 195.513Z" fill="white" stroke="black" stroke-width="1.4"/>
<path d="M194.667 210.357C192.774 209.415 190.551 210.792 190.551 212.906C190.551 213.987 191.163 214.974 192.13 215.456L195.209 216.988C197.566 218.161 200.337 218.161 202.694 216.988L205.773 215.456C206.741 214.974 207.352 213.987 207.352 212.906C207.352 210.792 205.129 209.415 203.236 210.357L201.407 211.267C199.861 212.037 198.043 212.037 196.496 211.267L194.667 210.357Z" fill="white" stroke="black" stroke-width="1.4"/>
<rect x="106.329" y="118.061" width="25.8647" height="54.6032" rx="12" transform="rotate(35.435 106.329 118.061)" fill="black"/>
<rect width="28.8372" height="60.8786" rx="14.4186" transform="matrix(-0.866025 0.5 0.5 0.866025 167.887 120.963)" fill="black"/>
<path d="M117.116 127.191C122.289 130.872 123.498 138.05 119.818 143.222L106.171 162.492" stroke="white" stroke-width="1.4" stroke-linecap="round"/>
<path d="M154.95 129.958C148.82 133.497 146.72 141.336 150.259 147.466L159.07 162.727" stroke="white" stroke-width="1.4" stroke-linecap="round"/>
<rect x="85.0747" y="159.053" width="12.9693" height="45.0875" rx="6.48464" transform="rotate(35.435 85.0747 159.053)" fill="white" stroke="black" stroke-width="1.4"/>
<rect x="-0.256218" y="0.956218" width="14.6207" height="50.4302" rx="7.31034" transform="matrix(-0.866025 0.5 0.5 0.866025 186.481 167.896)" fill="white" stroke="black" stroke-width="1.4"/>
<path d="M68.2978 181.451C67.0127 182.848 64.7186 182.484 63.9292 180.757C63.4852 179.786 63.6666 178.643 64.3896 177.857L67.3223 174.668C68.9954 172.848 71.3316 171.78 73.8022 171.706L78.1328 171.575C79.2004 171.542 80.1834 172.153 80.6275 173.125C81.4168 174.851 80.191 176.824 78.2932 176.882L74.9694 176.982C73.2839 177.033 71.6902 177.762 70.5487 179.003L68.2978 181.451Z" fill="white" stroke="black" stroke-width="1.4"/>
<path d="M203.341 195.386C204.655 197.119 207.31 196.952 208.397 195.069C209.009 194.01 208.926 192.687 208.187 191.712L205.268 187.863C203.59 185.65 201.091 184.207 198.335 183.86L193.542 183.257C192.329 183.105 191.142 183.695 190.53 184.754C189.443 186.637 190.626 189.019 192.784 189.291L196.462 189.753C198.306 189.985 199.979 190.951 201.101 192.431L203.341 195.386Z" fill="white" stroke="black" stroke-width="1.4"/>
<path d="M75.2742 183.707C73.8066 182.499 74.1107 180.171 75.8393 179.381C76.7339 178.972 77.7834 179.11 78.5429 179.735L81.0833 181.825C82.9445 183.357 83.9972 185.66 83.9376 188.069L83.8561 191.358C83.8318 192.342 83.2487 193.225 82.3541 193.634C80.6255 194.424 78.6665 193.131 78.7136 191.231L78.7642 189.188C78.8041 187.574 78.0989 186.031 76.852 185.005L75.2742 183.707Z" fill="white" stroke="black" stroke-width="1.4"/>
<path d="M195.469 197.171C197.275 195.952 197.18 193.264 195.294 192.174C194.317 191.611 193.105 191.653 192.17 192.284L189.13 194.336C186.882 195.853 185.457 198.321 185.267 201.026L185.01 204.685C184.931 205.81 185.501 206.881 186.477 207.445C188.364 208.534 190.739 207.271 190.892 205.098L191.052 202.826C191.176 201.054 192.109 199.439 193.58 198.446L195.469 197.171Z" fill="white" stroke="black" stroke-width="1.4"/>
<path d="M73.0372 186.963C71.5696 185.756 71.8736 183.428 73.6022 182.638C74.4968 182.229 75.5463 182.366 76.3059 182.991L78.8463 185.082C80.7075 186.614 81.7602 188.917 81.7005 191.326L81.6191 194.615C81.5947 195.599 81.0117 196.482 80.1171 196.891C78.3885 197.681 76.4295 196.388 76.4765 194.488L76.5271 192.445C76.5671 190.831 75.8618 189.288 74.6149 188.262L73.0372 186.963Z" fill="white" stroke="black" stroke-width="1.4"/>
<path d="M197.606 201.021C199.412 199.802 199.318 197.113 197.431 196.024C196.455 195.46 195.242 195.503 194.308 196.134L191.268 198.186C189.02 199.703 187.595 202.17 187.405 204.876L187.148 208.535C187.069 209.66 187.638 210.731 188.615 211.295C190.501 212.384 192.877 211.121 193.03 208.948L193.189 206.675C193.314 204.904 194.246 203.289 195.718 202.295L197.606 201.021Z" fill="white" stroke="black" stroke-width="1.4"/>
<path d="M70.8021 190.219C69.3344 189.012 69.6385 186.684 71.3671 185.894C72.2617 185.485 73.3112 185.622 74.0708 186.247L76.6112 188.338C78.4724 189.869 79.5251 192.172 79.4654 194.582L79.384 197.871C79.3596 198.854 78.7766 199.738 77.882 200.147C76.1533 200.937 74.1943 199.644 74.2414 197.744L74.292 195.701C74.332 194.087 73.6267 192.544 72.3798 191.518L70.8021 190.219Z" fill="white" stroke="black" stroke-width="1.4"/>
<path d="M199.744 204.871C201.55 203.653 201.455 200.964 199.569 199.875C198.592 199.311 197.38 199.353 196.445 199.984L193.405 202.036C191.157 203.553 189.732 206.021 189.542 208.726L189.285 212.385C189.207 213.51 189.776 214.581 190.752 215.145C192.639 216.234 195.015 214.972 195.167 212.798L195.327 210.526C195.451 208.755 196.384 207.139 197.856 206.146L199.744 204.871Z" fill="white" stroke="black" stroke-width="1.4"/>
<rect x="75.6569" y="173.414" width="5.30566" height="12.9693" rx="2.65283" transform="rotate(-30.4458 75.6569 173.414)" fill="white" stroke="black" stroke-width="1.4"/>
<rect x="-0.977437" y="0.156896" width="6.07631" height="14.6207" rx="3.03816" transform="matrix(-0.810238 -0.586101 -0.586101 0.810238 195.495 184.921)" fill="white" stroke="black" stroke-width="1.4"/>
<path d="M204.818 1.5L183.595 51.0212L237.618 38.1586L204.818 1.5Z" stroke="black" stroke-width="1.4"/>
<rect x="128.02" y="183.446" width="24.9132" height="43.1507" rx="12.4566" transform="rotate(-22.6006 128.02 183.446)" fill="white" stroke="black" stroke-width="1.4"/>
<path d="M156.168 173.194C156.257 171.492 157.908 170.484 159.422 171.208C160.164 171.563 160.712 172.275 160.882 173.105L161.719 177.201C162.348 180.282 161.629 183.412 159.765 185.706L156.617 189.58C155.898 190.464 154.706 190.754 153.622 190.307C151.723 189.525 151.107 186.982 152.463 185.525L154.284 183.569C155.205 182.58 155.75 181.26 155.823 179.838L156.168 173.194Z" fill="white" stroke="black" stroke-width="1.4"/>
<path d="M128.185 176.356C129.998 176.818 130.684 178.842 129.504 180.243C129.008 180.831 128.261 181.191 127.466 181.227L124.676 181.351C121.527 181.492 118.611 179.973 117.146 177.429L115.586 174.721C115.067 173.821 115.154 172.711 115.811 171.861C117.144 170.136 119.958 170.354 120.858 172.253L121.172 172.915C121.737 174.106 122.845 174.993 124.204 175.34L128.185 176.356Z" fill="white" stroke="black" stroke-width="1.4"/>
<path d="M129.709 180.743C131.522 181.206 132.209 183.23 131.028 184.63C130.532 185.219 129.786 185.579 128.99 185.615L126.2 185.739C123.051 185.88 120.136 184.361 118.67 181.817L117.11 179.109C116.591 178.208 116.679 177.099 117.335 176.248C118.668 174.523 121.482 174.742 122.382 176.64L122.696 177.303C123.261 178.494 124.37 179.381 125.728 179.727L129.709 180.743Z" fill="white" stroke="black" stroke-width="1.4"/>
<path d="M132.13 186.295C133.943 186.758 134.63 188.782 133.449 190.182C132.953 190.77 132.206 191.131 131.411 191.166L128.621 191.291C125.472 191.431 122.556 189.913 121.091 187.369L119.531 184.661C119.012 183.76 119.099 182.651 119.756 181.8C121.089 180.075 123.903 180.294 124.803 182.192L125.117 182.855C125.682 184.046 126.79 184.932 128.149 185.279L132.13 186.295Z" fill="white" stroke="black" stroke-width="1.4"/>
<path d="M134.925 192.166C136.443 192.553 137.018 194.248 136.029 195.421C135.614 195.913 134.989 196.215 134.323 196.245L131.889 196.354C129.178 196.475 126.668 195.167 125.406 192.977L124.046 190.615C123.61 189.858 123.683 188.926 124.235 188.211C125.355 186.762 127.72 186.945 128.476 188.541L128.75 189.119C129.254 190.18 130.242 190.971 131.453 191.28L134.925 192.166Z" fill="white" stroke="black" stroke-width="1.4"/>
<rect x="127.512" y="180.842" width="24.9132" height="24.9785" rx="12.4566" transform="rotate(-22.6006 127.512 180.842)" fill="white" stroke="black" stroke-width="1.4"/>
<rect x="117.893" y="158.06" width="26.2925" height="37.2017" transform="rotate(-22.6006 117.893 158.06)" fill="#47DB99" stroke="black" stroke-width="1.4"/>
<path d="M116.158 156.649L141.724 146.007" stroke="white" stroke-width="1.4" stroke-linecap="round"/>
<rect x="122.61" y="156.185" width="16.7833" height="20.9792" transform="rotate(-22.6006 122.61 156.185)" fill="black"/>
<circle cx="132.614" cy="158.383" r="3.49583" transform="rotate(-22.6006 132.614 158.383)" fill="black" stroke="white" stroke-width="1.4"/>
<circle cx="136.162" cy="166.905" r="3.49583" transform="rotate(-22.6006 136.162 166.905)" fill="black" stroke="white" stroke-width="1.4"/>
<circle cx="132.615" cy="158.383" r="0.978334" transform="rotate(-22.6006 132.615 158.383)" fill="black" stroke="white" stroke-width="1.4"/>
<circle cx="136.163" cy="166.904" r="0.978334" transform="rotate(-22.6006 136.163 166.904)" fill="black" stroke="white" stroke-width="1.4"/>
<rect x="148.592" y="175.026" width="4.47417" height="2.79583" transform="rotate(-22.6006 148.592 175.026)" fill="white" stroke="black" stroke-width="1.4"/>
<rect x="151.258" y="181.388" width="4.47417" height="2.79583" transform="rotate(-22.6006 151.258 181.388)" fill="white" stroke="black" stroke-width="1.4"/>
<rect x="149.882" y="178.124" width="4.47417" height="2.79583" transform="rotate(-22.6006 149.882 178.124)" fill="white" stroke="black" stroke-width="1.4"/>
<rect x="152.065" y="176.457" width="2.5175" height="4.19583" transform="rotate(-22.6006 152.065 176.457)" fill="black"/>
<path d="M129.558 177.184C131.152 178.162 133.083 177.245 133.265 175.423C133.342 174.657 133.081 173.871 132.552 173.275L130.698 171.186C128.606 168.829 125.486 167.794 122.64 168.514L119.61 169.281C118.602 169.535 117.867 170.371 117.714 171.435C117.404 173.592 119.521 175.459 121.51 174.783L122.204 174.547C123.452 174.123 124.861 174.301 126.055 175.034L129.558 177.184Z" fill="white" stroke="black" stroke-width="1.4"/>
<path d="M131.23 182.409C132.824 183.388 134.755 182.471 134.938 180.648C135.014 179.883 134.753 179.096 134.225 178.501L132.371 176.411C130.279 174.054 127.158 173.02 124.312 173.74L121.282 174.506C120.275 174.761 119.539 175.596 119.387 176.66C119.077 178.818 121.193 180.685 123.182 180.009L123.877 179.773C125.125 179.348 126.533 179.526 127.728 180.26L131.23 182.409Z" fill="white" stroke="black" stroke-width="1.4"/>
<path d="M132.62 187.828C134.214 188.807 136.145 187.89 136.328 186.067C136.405 185.302 136.143 184.515 135.615 183.92L133.761 181.83C131.669 179.473 128.548 178.439 125.702 179.159L122.673 179.925C121.665 180.18 120.93 181.015 120.777 182.079C120.467 184.237 122.583 186.104 124.572 185.428L125.267 185.192C126.515 184.767 127.923 184.945 129.118 185.679L132.62 187.828Z" fill="white" stroke="black" stroke-width="1.4"/>
<path d="M134.836 191.412C136.29 191.995 137.755 190.966 137.648 189.436C137.604 188.794 137.277 188.181 136.757 187.764L134.856 186.24C132.739 184.543 129.941 184.117 127.63 185.14L125.138 186.244C124.339 186.598 123.849 187.394 123.872 188.297C123.921 190.128 125.938 191.375 127.49 190.533L128.053 190.229C129.086 189.669 130.35 189.614 131.51 190.079L134.836 191.412Z" fill="white" stroke="black" stroke-width="1.4"/>
<path d="M58.5389 150.819L28.542 184.435" stroke="black" stroke-width="1.4" stroke-linecap="round"/>
<path d="M215.329 133.969L259.44 143.139" stroke="black" stroke-width="1.4" stroke-linecap="round"/>
<path d="M40.567 129.958L4.47346 143.615" stroke="black" stroke-width="1.4" stroke-linecap="round"/>
<path d="M47.4338 150.426L43.3578 149.79L42.7218 153.866L38.6454 153.23L38.0094 157.306L33.9331 156.67L33.2971 160.747L29.2207 160.111L28.5847 164.187L24.5084 163.551L23.8724 167.627L19.7961 166.991L19.1601 171.067L15.0837 170.431L14.4477 174.508L10.3714 173.872" stroke="#2C73FB" stroke-width="1.4" stroke-linecap="round"/>
<path d="M211.834 146.166L212.184 150.277L216.295 149.926L216.645 154.037L220.756 153.687L221.106 157.798L225.217 157.447L225.567 161.558L229.678 161.208L230.028 165.319L234.139 164.968L234.489 169.079L238.6 168.729L238.95 172.84L243.061 172.49L243.411 176.6" stroke="#FF3366" stroke-width="1.4" stroke-linecap="round"/>
<circle cx="195.875" cy="21.0796" r="7.92157" fill="white" stroke="black" stroke-width="1.4"/>
<path d="M255.005 82.7858H241.054V64.0488H263.074V90.3079L255.005 82.7858Z" fill="#FF4B78"/>
<path d="M8.56917 109.486H22.5198V90.749H0.500013V117.008L8.56917 109.486Z" fill="#2C73FB"/>
<path d="M209.887 59.9104L204.973 56.8662V62.6501L209.887 65.4768V59.9104Z" fill="black"/>
<path d="M214.764 56.9083L210.375 54.2412L205.986 56.9083L210.375 59.7743M214.764 56.9083L210.375 59.7743M214.764 56.9083V62.1229L210.375 64.5511V59.7743" stroke="black" stroke-width="1.4"/>
<path d="M16.7844 14.2591L24.9604 54.0241L77.7326 50.6794L72.5297 5.33984L16.7844 14.2591Z" fill="black"/>
<path d="M50.0885 41.1375L11.5061 23.2622L13.8069 61.4907L83.0075 57.42V18.3066L50.0885 41.1375Z" fill="white" stroke="black" stroke-width="1.4" stroke-linecap="round"/>
<path d="M28.6785 18.8259L64.1477 13.4189" stroke="white" stroke-width="1.4" stroke-linecap="round"/>
<path d="M29.5234 23.7136L64.9927 18.3066" stroke="white" stroke-width="1.4" stroke-linecap="round"/>
<path d="M29.5234 29.1208L64.9927 23.7139" stroke="white" stroke-width="1.4" stroke-linecap="round"/>
<circle cx="31.6146" cy="34.3341" r="8.39484" fill="white" stroke="black" stroke-width="1.4"/>
<path d="M29.1755 31.5527L34.3767 36.7541" stroke="black" stroke-width="1.4" stroke-linecap="round"/>
<path d="M34.3767 31.5527L29.1755 36.7541" stroke="black" stroke-width="1.4" stroke-linecap="round"/>
</svg>
