<svg width="321" height="225" viewBox="0 0 321 225" fill="none" xmlns="http://www.w3.org/2000/svg">
<path fill-rule="evenodd" clip-rule="evenodd" d="M215.805 92.9986C187.801 92.9986 165.076 115.711 165.076 143.757C165.076 157.95 170.879 170.804 180.337 180.053H251.274C260.731 170.804 266.534 157.95 266.534 143.757C266.534 115.711 243.809 92.9986 215.805 92.9986ZM265.953 223.444H165.657C139.236 206.771 121.685 177.314 121.685 143.757C121.685 91.7595 163.824 49.6074 215.805 49.6074C267.786 49.6074 309.925 91.7595 309.925 143.757C309.925 177.314 292.374 206.771 265.953 223.444Z" fill="#E4ECF4"/>
<path d="M41.2563 153.429C41.2563 138.618 53.2636 126.61 68.0753 126.61C82.887 126.61 94.8943 138.618 94.8943 153.429V224.5H41.2563V153.429Z" fill="black"/>
<rect x="132.257" y="50.7576" width="105.773" height="39.2049" fill="white" stroke="black" stroke-width="1.4"/>
<rect x="131.557" y="50.0576" width="56.5447" height="40.6049" fill="black"/>
<path d="M197.471 63.127H230.542" stroke="black" stroke-width="1.4" stroke-linecap="round"/>
<path d="M197.47 67.9492H230.541" stroke="black" stroke-width="1.4" stroke-linecap="round"/>
<path d="M197.47 72.7705H230.541" stroke="black" stroke-width="1.4" stroke-linecap="round"/>
<path d="M197.47 77.5918H210.948" stroke="black" stroke-width="1.4" stroke-linecap="round"/>
<path d="M137.232 63.0986H149.962" stroke="white" stroke-width="1.4" stroke-linecap="round"/>
<path d="M151.377 63.0986H154.207" stroke="#FF3366" stroke-width="1.4" stroke-linecap="round"/>
<path d="M155.622 63.0986H168.352" stroke="white" stroke-width="1.4" stroke-linecap="round"/>
<path d="M137.233 67.9395H159.864" stroke="white" stroke-width="1.4" stroke-linecap="round"/>
<path d="M161.279 67.9395H178.253" stroke="#FF3366" stroke-width="1.4" stroke-linecap="round"/>
<path d="M179.667 67.9395H182.497" stroke="white" stroke-width="1.4" stroke-linecap="round"/>
<path d="M165.522 72.7803H176.838" stroke="#FF3366" stroke-width="1.4" stroke-linecap="round"/>
<path d="M140.063 72.7803H164.109" stroke="#FF3366" stroke-width="1.4" stroke-linecap="round"/>
<path d="M137.233 77.6211H151.378" stroke="white" stroke-width="1.4" stroke-linecap="round"/>
<mask id="path-18-inside-1_222:2" fill="white">
<path d="M94.9233 140.937C90.0615 137.796 82.0687 139.906 79.0849 144.855C76.1012 149.804 76.4768 159.439 83.866 164.486C91.2552 169.533 114.692 180.231 114.692 180.231C119.458 182.536 124.922 182.749 128.249 178.416L147.303 153.605C150.029 150.056 149.468 144.987 146.032 142.12C142.596 139.252 137.509 139.606 134.504 142.923L120.174 158.739C120.174 158.739 99.7851 144.078 94.9233 140.937Z"/>
</mask>
<path d="M94.9233 140.937C90.0615 137.796 82.0687 139.906 79.0849 144.855C76.1012 149.804 76.4768 159.439 83.866 164.486C91.2552 169.533 114.692 180.231 114.692 180.231C119.458 182.536 124.922 182.749 128.249 178.416L147.303 153.605C150.029 150.056 149.468 144.987 146.032 142.12C142.596 139.252 137.509 139.606 134.504 142.923L120.174 158.739C120.174 158.739 99.7851 144.078 94.9233 140.937Z" fill="white"/>
<path d="M79.0849 144.855L77.886 144.132L79.0849 144.855ZM94.9233 140.937L95.683 139.761L95.683 139.761L94.9233 140.937ZM120.174 158.739L119.357 159.875L120.372 160.605L121.212 159.679L120.174 158.739ZM147.303 153.605L146.192 152.753L147.303 153.605ZM128.249 178.416L129.36 179.269L128.249 178.416ZM134.504 142.923L133.466 141.983L134.504 142.923ZM146.032 142.12L145.135 143.194L145.135 143.194L146.032 142.12ZM114.692 180.231L115.302 178.97L115.288 178.964L115.273 178.957L114.692 180.231ZM83.866 164.486L84.6556 163.33L83.866 164.486ZM80.2839 145.578C81.5439 143.488 83.936 141.904 86.6432 141.22C89.3513 140.534 92.1411 140.806 94.1636 142.113L95.683 139.761C92.8437 137.927 89.2062 137.683 85.9565 138.505C82.7059 139.327 79.6097 141.273 77.886 144.132L80.2839 145.578ZM94.1636 142.113C96.5615 143.662 102.843 148.09 108.56 152.156C111.411 154.184 114.111 156.114 116.097 157.537C117.09 158.248 117.906 158.833 118.472 159.24C118.756 159.443 118.977 159.602 119.127 159.71C119.202 159.764 119.26 159.805 119.298 159.833C119.318 159.847 119.332 159.858 119.342 159.865C119.347 159.868 119.351 159.871 119.353 159.873C119.354 159.873 119.355 159.874 119.356 159.875C119.356 159.875 119.356 159.875 119.357 159.875C119.357 159.875 119.357 159.875 120.174 158.739C120.991 157.602 120.991 157.602 120.991 157.602C120.991 157.602 120.991 157.601 120.991 157.601C120.99 157.601 120.989 157.6 120.988 157.599C120.985 157.597 120.982 157.595 120.977 157.591C120.967 157.584 120.952 157.574 120.933 157.56C120.894 157.532 120.836 157.49 120.761 157.436C120.61 157.328 120.389 157.169 120.105 156.965C119.538 156.558 118.722 155.973 117.728 155.261C115.739 153.836 113.038 151.905 110.183 149.875C104.491 145.826 98.1469 141.353 95.683 139.761L94.1636 142.113ZM146.192 152.753L127.139 177.563L129.36 179.269L148.413 154.458L146.192 152.753ZM121.212 159.679L135.541 143.863L133.466 141.983L119.137 157.799L121.212 159.679ZM145.135 143.194C147.994 145.581 148.461 149.799 146.192 152.753L148.413 154.458C151.596 150.313 150.941 144.394 146.929 141.045L145.135 143.194ZM146.929 141.045C142.916 137.696 136.976 138.11 133.466 141.983L135.541 143.863C138.042 141.103 142.275 140.808 145.135 143.194L146.929 141.045ZM127.139 177.563C124.413 181.113 119.821 181.156 115.302 178.97L114.082 181.491C119.096 183.916 125.431 184.385 129.36 179.269L127.139 177.563ZM114.692 180.231C115.273 178.957 115.273 178.957 115.273 178.957C115.273 178.957 115.273 178.957 115.272 178.957C115.272 178.956 115.271 178.956 115.269 178.955C115.267 178.954 115.262 178.952 115.257 178.95C115.246 178.944 115.229 178.937 115.207 178.927C115.163 178.907 115.097 178.876 115.011 178.837C114.838 178.758 114.584 178.641 114.257 178.49C113.604 178.188 112.662 177.752 111.508 177.212C109.2 176.133 106.046 174.641 102.663 172.992C95.8569 169.676 88.2494 165.785 84.6556 163.33L83.0763 165.642C86.8718 168.235 94.6773 172.216 101.437 175.51C104.837 177.166 108.004 178.665 110.321 179.748C111.48 180.29 112.427 180.729 113.084 181.032C113.413 181.184 113.669 181.302 113.843 181.382C113.93 181.422 113.997 181.452 114.042 181.473C114.065 181.483 114.082 181.491 114.093 181.496C114.099 181.499 114.103 181.501 114.106 181.502C114.108 181.503 114.109 181.503 114.109 181.504C114.11 181.504 114.11 181.504 114.11 181.504C114.111 181.504 114.111 181.504 114.692 180.231ZM84.6556 163.33C81.3156 161.049 79.5532 157.733 78.9644 154.391C78.3695 151.015 78.9917 147.721 80.2839 145.578L77.886 144.132C76.1945 146.938 75.5126 150.936 76.2068 154.877C76.9072 158.851 79.0272 162.876 83.0763 165.642L84.6556 163.33Z" fill="black" mask="url(#path-18-inside-1_222:2)"/>
<path d="M33.6759 171.988L32.8819 171.422L33.6722 170.851L56.1055 154.636C60.8458 151.21 62.5153 144.127 59.8432 138.954C57.0784 133.601 50.7512 132.377 46.0712 136.379L13.8992 163.886C13.0564 164.606 12.348 165.468 11.7865 166.421L11.7777 166.436L11.7682 166.45C11.4331 166.959 11.141 167.522 10.901 168.136C9.00933 172.979 11.1917 178.995 15.769 181.532L48.5439 199.699C52.2142 201.733 56.361 200.016 57.5511 195.947C58.5258 192.615 57.1751 188.743 54.3164 186.705L33.6759 171.988Z" fill="white" stroke="black" stroke-width="1.4" stroke-linecap="round"/>
<path d="M41.2563 155.113V195.929C41.2563 211.708 53.2636 224.499 68.0753 224.499L54.2401 173.253L62.1155 141.962L54.2401 130.633C46.4593 135.634 41.2563 144.726 41.2563 155.113Z" fill="black"/>
<path d="M59.8376 120.449C59.8376 119.762 60.283 119.035 61.2226 118.445C62.1528 117.861 63.4812 117.476 64.9851 117.476H76.1229C77.6267 117.476 78.9551 117.861 79.8852 118.445C80.8248 119.035 81.2702 119.762 81.2702 120.449L81.2698 134.863C81.2698 135.55 80.8244 136.277 79.8848 136.867C78.9546 137.451 77.6262 137.835 76.1224 137.835H64.9846C63.4807 137.835 62.1523 137.451 61.2222 136.867C60.2826 136.277 59.8372 135.55 59.8372 134.863L59.8376 120.449Z" fill="white" stroke="black" stroke-width="1.4" stroke-linecap="round"/>
<path d="M91.2963 109.556L99.28 105.761L90.5473 97.1989" stroke="black" stroke-width="1.4" stroke-linecap="round"/>
<path d="M50.2465 95.77C49.3721 79.4113 59.1128 72.2735 70.9904 71.7168C107.209 70.0194 93.3298 108.837 92.8415 118.883C90.323 130.154 73.9567 131.167 63.1507 127.891C52.3448 124.615 51.3394 116.218 50.2465 95.77Z" fill="white" stroke="black" stroke-width="1.4" stroke-linecap="round"/>
<path d="M95.6004 91.7581C91.6801 90.3709 86.127 95.6694 84.8239 95.8411C83.5209 96.0128 81.938 95.3309 80.3489 95.8411C78.7598 96.3513 74.8213 101.624 78.7598 106C79.457 106.775 75.7673 114.098 75.7673 114.098C72.3192 119.114 52.6275 115.149 52.6461 116.105C52.6484 116.119 52.6495 116.126 52.6495 116.126C52.6474 116.119 52.6462 116.112 52.6461 116.105C52.5473 115.492 50.3391 101.778 50.1477 98.493C49.0194 85.2863 55.4158 74.0653 65.0242 72.6971C74.6325 71.3289 81.4769 71.2385 89.1348 76.2093C94.0055 78.8376 96.241 89.9058 95.6004 91.7581Z" fill="black"/>
<path d="M66.6829 75.5132C66.5145 75.5159 66.2746 75.5252 65.9767 75.5508C65.3816 75.6021 64.5511 75.7191 63.5942 75.9822C61.6802 76.5085 59.2431 77.6247 57.1888 79.9808C55.1454 82.3243 53.9489 85.3613 53.3278 88.1093C52.7097 90.8439 52.6376 93.4014 52.9371 94.8285" stroke="white" stroke-width="1.4" stroke-linecap="round"/>
<path d="M92.9429 116.86C92.4737 117.365 91.0613 118.072 89.5826 117.642C88.1039 117.212 87.5472 116.366 87.3391 115.851" stroke="black" stroke-width="1.4" stroke-linecap="round"/>
<path d="M90.9982 99.4619C90.8679 100.894 90.4307 102.025 90.0216 101.987C89.6125 101.95 89.3864 100.759 89.5166 99.3272C89.6469 97.8952 90.0841 96.7645 90.4932 96.8017C90.9023 96.8389 91.1284 98.0299 90.9982 99.4619Z" fill="black"/>
<path d="M87.7625 75.5651C87.8862 75.6509 88.0188 75.7401 88.1591 75.8343C88.6979 76.1966 89.3485 76.6341 90.0321 77.2448C91.0736 78.2687 92.6734 79.0567 94.1638 79.2887C95.6343 79.5177 97.241 79.2214 97.9003 77.7347C98.3256 76.7756 98.3992 75.9401 98.1655 75.2353C97.932 74.5313 97.4201 74.0429 96.8443 73.7212C96.2717 73.4012 95.6101 73.2297 95.0054 73.1605C94.4043 73.0918 93.8157 73.1193 93.3799 73.2332" stroke="black" stroke-width="1.4" stroke-linecap="round"/>
<path d="M269.518 43.3421C259.086 40.5467 252.895 29.823 255.69 19.3901C258.485 8.95723 269.208 2.76591 279.64 5.56139C290.072 8.35686 296.263 19.0806 293.468 29.5134C290.673 39.9463 279.95 46.1376 269.518 43.3421Z" fill="#E4ECF4"/>
<path d="M255.689 19.3895C256.808 15.2139 259.278 11.5266 262.715 8.90414C266.151 6.28164 270.359 4.87169 274.682 4.89466L274.578 24.4511L255.689 19.3895Z" fill="#2C73FB"/>
<path d="M180.246 192.092C178.88 196.881 175.713 199.218 172.865 200.375C171.435 200.957 170.086 201.238 169.095 201.373C168.6 201.441 168.197 201.472 167.921 201.486C167.833 201.49 167.759 201.493 167.698 201.495C167.647 201.461 167.585 201.419 167.513 201.37C167.286 201.212 166.96 200.973 166.575 200.654C165.804 200.016 164.807 199.066 163.899 197.817C162.091 195.332 160.634 191.675 162 186.886C163.38 182.051 166.995 178.298 170.337 175.729C172.001 174.45 173.577 173.48 174.737 172.83C175.294 172.518 175.753 172.281 176.079 172.119C176.27 172.429 176.535 172.873 176.844 173.431C177.486 174.596 178.313 176.251 179.052 178.215C180.535 182.161 181.625 187.257 180.246 192.092Z" fill="#47DB99" stroke="black" stroke-width="1.4"/>
<path d="M173.785 183.923L168.412 199.509" stroke="black" stroke-width="1.4" stroke-linecap="round"/>
<path d="M168.443 189.89C170.972 192.42 171.333 195.216 171.065 197.408C170.93 198.512 170.635 199.46 170.373 200.132C170.243 200.467 170.121 200.731 170.034 200.909C170.018 200.942 170.003 200.972 169.989 200.998C169.962 201.012 169.933 201.027 169.9 201.043C169.722 201.13 169.458 201.252 169.123 201.383C168.45 201.645 167.503 201.94 166.399 202.074C164.207 202.342 161.411 201.982 158.881 199.452C156.319 196.89 155.212 193.286 154.759 190.249C154.535 188.74 154.475 187.395 154.472 186.428C154.471 186.057 154.478 185.742 154.487 185.496C154.733 185.487 155.047 185.48 155.419 185.481C156.386 185.484 157.731 185.544 159.24 185.769C162.277 186.221 165.881 187.328 168.443 189.89Z" fill="#47DB99" stroke="black" stroke-width="1.4"/>
<path d="M160.987 191.527L166.953 199.224" stroke="black" stroke-width="1.4" stroke-linecap="round"/>
<path d="M177.483 202.077L174.832 215.996L161.401 215.996L158.749 202.077L177.483 202.077Z" fill="white" stroke="black" stroke-width="1.4"/>
<rect x="179.671" y="202.677" width="23.1107" height="3.15285" transform="rotate(180 179.671 202.677)" fill="white" stroke="black" stroke-width="1.4"/>
<path d="M1.5 223.788H320.149" stroke="black" stroke-width="1.4" stroke-linecap="round"/>
<path fill-rule="evenodd" clip-rule="evenodd" d="M108.459 5.52228C112.699 6.2872 117.163 9.09332 121.848 13.826C124.185 16.187 126.541 18.9888 128.952 21.9029C129.218 22.2251 129.486 22.5487 129.754 22.8731C131.888 25.4575 134.065 28.0931 136.245 30.4525C138.693 33.1017 141.239 35.5087 143.864 37.1665C146.496 38.8283 149.383 39.845 152.425 39.4059C153.507 39.2499 154.257 38.2465 154.101 37.1648C153.945 36.0831 152.942 35.3328 151.86 35.4889C150.088 35.7446 148.159 35.1979 145.977 33.8199C143.788 32.4378 141.519 30.3286 139.152 27.7666C137.052 25.4938 134.949 22.9482 132.803 20.3513C132.537 20.0281 132.269 19.7042 132.001 19.3799C129.597 16.4749 127.138 13.5444 124.66 11.0417C119.716 6.04688 114.55 2.59961 109.161 1.62748C103.652 0.633716 98.2496 2.28432 93.0703 6.7689C88.3492 10.8567 83.6856 17.4309 79.2122 23.7368C78.91 24.1627 78.6087 24.5875 78.3083 25.0101C73.4318 31.8716 68.8122 38.1592 64.3191 41.4012C60.069 44.4679 55.9686 44.7467 51.7623 43.0774C47.3938 41.3438 42.8326 37.4652 38.0838 31.9828C36.1913 29.798 34.3023 27.3992 32.3793 24.9573C31.8943 24.3414 31.4071 23.7227 30.9172 23.1041C28.5094 20.0637 26.0423 17.0333 23.55 14.5158C21.0768 12.0174 18.4388 9.87677 15.6516 8.77064C12.76 7.62312 9.71007 7.59888 6.71045 9.33038C5.76401 9.87671 5.43961 11.0869 5.9859 12.0334C6.53218 12.9799 7.74228 13.3044 8.68874 12.758C10.5039 11.7102 12.2687 11.686 14.1919 12.4492C16.2195 13.2539 18.3962 14.9348 20.7378 17.3001C23.0603 19.6463 25.408 22.5219 27.815 25.5612C28.288 26.1586 28.7638 26.7628 29.2417 27.3697C31.1703 29.819 33.1332 32.312 35.0927 34.5741C39.9734 40.2089 45.0417 44.6682 50.3027 46.756C55.726 48.9083 61.2551 48.4922 66.6346 44.6107C71.771 40.9045 76.7809 33.9906 81.5339 27.303C81.7963 26.9338 82.058 26.5651 82.3191 26.1974C86.9162 19.7215 91.3176 13.5213 95.6606 9.76094C100.111 5.90767 104.338 4.77899 108.459 5.52228Z" fill="#FF3366"/>
<path fill-rule="evenodd" clip-rule="evenodd" d="M139.185 16.8165C135.009 16.8165 126.933 16.8177 118.947 24.4397L118.938 24.4484L118.929 24.4569C116.843 26.4046 114.729 28.8773 112.549 31.5694C111.817 32.4738 111.072 33.41 110.321 34.3544C108.877 36.1687 107.409 38.0134 105.962 39.721C103.75 42.3303 101.443 44.7958 99.0596 46.6187C96.6899 48.4308 94.0189 49.7825 91.11 49.7825C88.26 49.7825 85.6231 48.4353 83.3205 46.8203C81.1725 45.3137 79.0391 43.3688 77.0359 41.5428C76.8753 41.3964 76.7155 41.2507 76.5566 41.1061C74.3515 39.0992 72.3078 37.2834 70.3216 36.0245C68.328 34.7609 66.7084 34.2662 65.3139 34.4564C63.8537 34.6555 62.1063 35.6633 60.0348 37.6064C58.0027 39.5126 55.9137 42.0716 53.7416 44.9271C52.8918 46.0443 52.0145 47.2274 51.1278 48.4231C49.8125 50.1967 48.4767 51.9981 47.179 53.654C44.9812 56.4586 42.6865 59.1221 40.329 61.0509L40.3195 61.0587L40.3099 61.0664C35.3215 65.0571 30.2408 65.7638 25.2534 64.587C20.45 63.4536 15.7809 60.5828 11.3797 57.6487C10.3527 56.964 10.0752 55.5764 10.7599 54.5494C11.4445 53.5224 12.8321 53.2449 13.8591 53.9296C18.2882 56.8823 22.3511 59.3096 26.2798 60.2366C30.0213 61.1194 33.6697 60.6502 37.508 57.5838C39.4646 55.9808 41.5083 53.6436 43.6608 50.8969C44.9437 49.2598 46.1938 47.573 47.4648 45.858C48.3548 44.657 49.2551 43.4422 50.1841 42.221C52.378 39.3368 54.6551 36.5242 56.9767 34.3464C59.259 32.2055 61.8531 30.4171 64.7099 30.0275C67.6324 29.629 70.3543 30.7532 72.7144 32.2491C75.082 33.7496 77.4044 35.8338 79.5652 37.8004C79.7081 37.9305 79.8504 38.0601 79.992 38.1891C82.0556 40.0691 83.9842 41.826 85.8872 43.1608C87.9384 44.5996 89.643 45.3127 91.11 45.3127C92.6162 45.3127 94.3357 44.6041 96.3444 43.0681C98.3389 41.5428 100.398 39.3725 102.552 36.8308C103.959 35.1715 105.345 33.4285 106.758 31.6524C107.521 30.6943 108.29 29.7265 109.075 28.757C111.271 26.0442 113.545 23.3694 115.87 21.1978C125.149 12.3467 134.727 12.3467 139.184 12.3467H143.502C144.737 12.3467 145.737 13.3473 145.737 14.5816C145.737 15.8159 144.737 16.8165 143.502 16.8165H139.185Z" fill="#2C73FB"/>
<path d="M220.743 161.195L194.042 214.752C193.048 216.747 194.499 219.091 196.727 219.091H283.217C284.38 219.091 285.439 218.419 285.933 217.366L311.072 163.808C312.006 161.818 310.554 159.533 308.357 159.533H223.428C222.291 159.533 221.251 160.177 220.743 161.195Z" fill="black"/>
<path d="M225.535 166.731L205.692 206.531C204.698 208.526 206.148 210.87 208.377 210.87H273.329C274.492 210.87 275.551 210.198 276.045 209.145L294.727 169.344C295.661 167.355 294.209 165.069 292.011 165.069H228.22C227.082 165.069 226.042 165.713 225.535 166.731Z" fill="white"/>
<path d="M229.016 170.086L212.519 203.176C211.525 205.17 212.976 207.514 215.204 207.514H269.649C270.812 207.514 271.871 206.842 272.365 205.789L287.897 172.7C288.83 170.71 287.379 168.425 285.181 168.425H231.701C230.563 168.425 229.524 169.068 229.016 170.086Z" fill="white" stroke="black" stroke-width="1.4"/>
<path d="M264.362 177.994L260.759 185.221C260.428 185.886 260.911 186.667 261.654 186.667H273.848C274.236 186.667 274.589 186.443 274.754 186.092L278.146 178.865C278.457 178.202 277.973 177.44 277.24 177.44H265.257C264.878 177.44 264.531 177.655 264.362 177.994Z" fill="black"/>
<path d="M260.549 177.682L256.947 184.909C256.383 186.039 257.205 187.367 258.468 187.367H270.662C271.321 187.367 271.921 186.986 272.201 186.39L275.593 179.163L274.96 178.865L275.593 179.163C276.123 178.035 275.3 176.74 274.054 176.74H262.071C261.426 176.74 260.837 177.105 260.549 177.682Z" stroke="white" stroke-width="1.4"/>
<path d="M231.128 174.488L219.756 198.368C219.44 199.031 219.924 199.798 220.659 199.798H244.16C244.548 199.798 244.902 199.572 245.066 199.22L256.189 175.34C256.498 174.677 256.014 173.918 255.283 173.918H232.03C231.645 173.918 231.293 174.14 231.128 174.488Z" fill="#FF3366"/>
<path d="M257.306 192.79L255.33 197.081C255.025 197.744 255.509 198.499 256.238 198.499H268.456C268.86 198.499 269.223 198.257 269.379 197.885L271.172 193.593C271.447 192.935 270.963 192.208 270.249 192.208H258.214C257.824 192.208 257.469 192.435 257.306 192.79Z" fill="black"/>
<path d="M306.703 159.039L278.516 219.091" stroke="white" stroke-width="1.4"/>
<path d="M144.302 216.071H286.068C286.068 220.333 282.612 223.788 278.351 223.788H152.019C147.757 223.788 144.302 220.333 144.302 216.071Z" fill="black"/>
<path d="M255.154 53.8984H286.067V109.254H255.154V53.8984Z" fill="black"/>
<path d="M251.987 50.7576H281.5V104.714H251.987V50.7576Z" fill="white" stroke="black" stroke-width="1.4"/>
<rect x="258.267" y="74.5945" width="16.9522" height="6.28235" rx="3.14118" stroke="black" stroke-width="1.4"/>
<circle cx="261.722" cy="77.736" r="1.98601" fill="black"/>
<rect x="258.267" y="88.0027" width="16.9522" height="6.28235" rx="3.14118" stroke="black" stroke-width="1.4"/>
<circle cx="261.722" cy="91.1442" r="1.98601" fill="black"/>
<rect x="257.567" y="60.4854" width="18.3522" height="7.68235" rx="3.84118" fill="#47DB99"/>
<circle cx="272.021" cy="64.3268" r="1.98601" fill="white"/>
<path d="M306.043 205.289C306.043 205.289 292.364 214.673 294.275 217.956C296.185 221.239 299.848 219.666 300.312 217.26C300.776 214.854 294.413 208.713 287.234 213.343" stroke="black" stroke-width="1.4"/>
<path d="M271.24 135.368C277.348 132.153 283.456 129.581 289.671 130.867C296.885 132.386 302.485 141.738 307.995 146.298H191.593C201.104 140.676 207.813 132.755 216.163 125.724C222.271 120.58 228.378 118.009 234.486 121.866C240.594 125.724 246.809 136.011 252.917 139.225C259.025 142.44 265.133 138.582 271.24 135.368Z" fill="#2C73FB"/>
<rect x="317.6" y="201.403" width="9.86367" height="13.9824" rx="1" transform="rotate(124.002 317.6 201.403)" fill="#FF3366"/>
<path d="M313.127 202.091L317.411 195.74" stroke="black" stroke-width="1.4" stroke-linecap="round"/>
<path d="M310.161 200.09L314.445 193.739" stroke="black" stroke-width="1.4" stroke-linecap="round"/>
<path d="M307.046 197.99L311.331 191.639" stroke="black" stroke-width="1.4" stroke-linecap="round"/>
<path d="M314.076 206.435L302.664 198.737" stroke="black" stroke-width="1.4"/>
<path d="M262.143 133.513C268.251 130.299 274.358 127.727 280.573 129.013C287.787 130.531 293.387 139.883 298.897 144.443H182.495C192.006 138.821 198.715 130.9 207.065 123.869C213.173 118.726 219.281 116.154 225.389 120.012C231.496 123.869 237.711 134.156 243.819 137.371C249.927 140.585 256.035 136.728 262.143 133.513Z" stroke="black" stroke-width="1.4"/>
<circle r="10.7934" transform="matrix(-1 0 0 1 222.52 27.7397)" fill="#E4ECF4"/>
<circle r="15.8449" transform="matrix(-1 0 0 1 201.205 20.0839)" fill="white" stroke="black" stroke-width="1.4"/>
<path d="M193.401 20.2222L197.442 21.8554V23.1207L192.161 20.6741V19.7316L197.442 17.2915V18.5567L193.401 20.2222Z" fill="black"/>
<path d="M199.565 25.1864H198.539L202.464 14.9805H203.484L199.565 25.1864Z" fill="black"/>
<path d="M209.003 20.1835L204.736 18.5116V17.285L210.249 19.7252V20.6676L204.736 23.1142V21.8748L209.003 20.1835Z" fill="black"/>
<circle r="4.03645" transform="matrix(-1 0 0 1 213.835 27.6906)" fill="white" stroke="black" stroke-width="1.4"/>
<rect x="134.984" y="142.671" width="16.8674" height="13.7892" rx="6.89459" transform="rotate(-45 134.984 142.671)" fill="white" stroke="black" stroke-width="1.4"/>
<path d="M156.46 110.144L129.641 135.653L159.218 142.933L185.47 116.097L156.46 110.144Z" fill="white" stroke="black" stroke-width="1.4"/>
<path d="M144.57 128.913L140.263 133.01L146.218 134.413L150.434 130.103L144.57 128.913Z" fill="white" stroke="black" stroke-width="1.4"/>
<path d="M151.718 121.765L147.411 125.862L153.366 127.266L157.582 122.956L151.718 121.765Z" fill="white" stroke="black" stroke-width="1.4"/>
<path d="M158.866 114.617L154.559 118.714L160.514 120.117L164.73 115.807L158.866 114.617Z" fill="white" stroke="black" stroke-width="1.4"/>
<path d="M159.251 115.751L160.072 117.83L167.605 117.011" stroke="#FF3366" stroke-width="1.4"/>
<path d="M151.699 123.119L152.52 125.199L160.053 124.379" stroke="#FF3366" stroke-width="1.4"/>
<path d="M144.778 130.365L145.599 132.445L153.132 131.625" stroke="#FF3366" stroke-width="1.4"/>
<path d="M150.2 144.834C149.54 143.558 150.158 141.993 151.512 141.513L154.185 140.566C154.704 140.382 155.194 140.126 155.641 139.804L157.578 138.411C158.75 137.568 160.398 137.962 161.062 139.245C161.589 140.263 161.31 141.514 160.4 142.212L158.035 144.023C157.499 144.434 156.896 144.751 156.253 144.958L153.031 145.999C151.93 146.355 150.732 145.862 150.2 144.834Z" fill="white" stroke="black" stroke-width="1.4"/>
</svg>
