<svg width="40" height="40" viewBox="0 0 40 40" fill="none" xmlns="http://www.w3.org/2000/svg">
<path fill-rule="evenodd" clip-rule="evenodd" d="M39.7599 0.0537109H0V29.8137C0 35.3365 4.47715 39.8137 9.99999 39.8137H39.7599V0.0537109ZM7.55389 5.35498C7.55389 7.22789 8.18013 9.95506 10.0669 12.2481C12.0118 14.6116 15.1676 16.3552 19.8795 16.3552C24.5913 16.3552 27.7472 14.6116 29.692 12.2481C31.5788 9.95506 32.2051 7.22789 32.2051 5.35498H28.7592C28.7592 6.57451 28.3252 8.486 27.0312 10.0586C25.7952 11.5606 23.6498 12.9094 19.8795 12.9094C16.1092 12.9094 13.9637 11.5606 12.7278 10.0586C11.4338 8.486 10.9998 6.57451 10.9998 5.35498H7.55389Z" fill="#FC3869"/>
</svg>
