<svg width="315" height="231" viewBox="0 0 315 231" fill="none" xmlns="http://www.w3.org/2000/svg">
<path d="M99.6628 215.737L117.288 215.527L117.497 222.641L102.486 222.722L99.6628 215.737Z" fill="white"/>
<rect x="233.91" y="220.619" width="37.1057" height="2.03592" fill="white"/>
<path fill-rule="evenodd" clip-rule="evenodd" d="M93.7317 143.878C93.7317 164.524 110.468 181.262 131.113 181.262C151.757 181.262 168.494 164.524 168.494 143.878C168.494 123.232 151.757 106.494 131.113 106.494C110.468 106.494 93.7317 123.232 93.7317 143.878ZM131.113 84.5039C98.3236 84.5039 71.7429 111.087 71.7429 143.878C71.7429 176.669 98.3236 203.252 131.113 203.252C163.902 203.252 190.482 176.669 190.482 143.878C190.482 111.087 163.902 84.5039 131.113 84.5039Z" fill="#E4ECF4"/>
<path d="M49.6694 67.2647C34.5374 63.2098 25.5573 47.6547 29.612 32.5216C33.6666 17.3884 49.2204 8.40768 64.3525 12.4626C79.4845 16.5175 88.4645 32.0725 84.4099 47.2057C80.3553 62.3389 64.8015 71.3196 49.6694 67.2647Z" fill="#E4ECF4"/>
<path d="M29.6129 32.522C31.2357 26.4651 34.8195 21.1167 39.8039 17.3127C44.7884 13.5087 50.8927 11.4635 57.1627 11.4968L57.0119 39.8641L29.6129 32.522Z" fill="#2C73FB"/>
<path d="M113.632 63.7233C104.341 61.2337 98.8281 51.6836 101.317 42.3925C103.807 33.1015 113.356 27.5877 122.647 30.0773C131.937 32.5668 137.45 42.1169 134.961 51.408C132.472 60.699 122.922 66.2128 113.632 63.7233Z" fill="#F4E4E4"/>
<path d="M122.942 30.1589C127.381 31.4324 131.133 34.4176 133.372 38.4577L118.14 46.9004L122.942 30.1589Z" fill="#FF4B78"/>
<path d="M270.216 203.384C255.084 199.329 246.104 183.774 250.158 168.641C254.213 153.508 269.767 144.527 284.899 148.582C300.031 152.637 309.011 168.192 304.956 183.325C300.901 198.458 285.348 207.439 270.216 203.384Z" fill="#F4E4E4"/>
<path d="M270.215 203.384C264.796 201.932 259.929 198.905 256.23 194.687C252.531 190.469 250.166 185.248 249.434 179.686C248.701 174.123 249.635 168.468 252.116 163.436C254.598 158.404 258.515 154.221 263.374 151.416L277.557 175.983L270.215 203.384Z" fill="#FF4B78"/>
<path d="M214.168 203.189C204.974 200.726 199.517 191.274 201.981 182.079C204.444 172.883 213.895 167.426 223.09 169.89C232.285 172.354 237.741 181.806 235.277 191.001C232.814 200.196 223.363 205.653 214.168 203.189Z" fill="#E4ECF4"/>
<path d="M235.863 186.54C235.863 189.949 234.852 193.281 232.959 196.116C231.065 198.951 228.373 201.16 225.223 202.464C222.074 203.769 218.609 204.11 215.265 203.445C211.922 202.78 208.851 201.139 206.44 198.728C204.03 196.317 202.388 193.246 201.723 189.902C201.058 186.559 201.4 183.093 202.704 179.943C204.009 176.794 206.218 174.102 209.052 172.208C211.886 170.314 215.219 169.303 218.628 169.303V186.54H235.863Z" fill="#47DB99"/>
<path d="M118.36 213.701C118.36 210.786 120.722 208.423 123.637 208.423H127.155C130.07 208.423 132.432 210.786 132.432 213.701V217.219H118.36V213.701Z" fill="white"/>
<path fill-rule="evenodd" clip-rule="evenodd" d="M127.155 209.302H123.637C121.208 209.302 119.239 211.272 119.239 213.701V216.339H131.553V213.701C131.553 211.272 129.584 209.302 127.155 209.302ZM123.637 208.423C120.722 208.423 118.36 210.786 118.36 213.701V217.219H132.432V213.701C132.432 210.786 130.07 208.423 127.155 208.423H123.637Z" fill="black"/>
<path fill-rule="evenodd" clip-rule="evenodd" d="M66.6045 102.28C69.5567 99.7346 73.5931 100.513 75.3452 103.934C77.0114 107.186 75.9764 111.615 73.0203 113.769L59.8151 123.394L71.965 132.129C73.7889 133.44 74.6489 135.92 74.0254 138.07C73.2517 140.737 70.5227 141.882 68.1281 140.543L48.8354 129.76C45.962 128.154 44.5966 124.364 45.7858 121.294C45.9373 120.903 46.1224 120.544 46.3359 120.216C46.6881 119.614 47.1339 119.066 47.6667 118.607L66.6045 102.28Z" fill="white"/>
<path fill-rule="evenodd" clip-rule="evenodd" d="M58.3151 123.398L71.4516 132.843C72.9746 133.938 73.6999 136.034 73.1806 137.825C72.5606 139.962 70.4453 140.831 68.5572 139.775L49.2645 128.993C46.7737 127.6 45.5751 124.273 46.6059 121.612L45.7858 121.294C44.5966 124.364 45.962 128.154 48.8354 129.76L68.1281 140.543C70.5227 141.882 73.2517 140.737 74.0254 138.07C74.6489 135.92 73.7889 133.44 71.965 132.129L59.8151 123.394L73.0203 113.769C75.9764 111.615 77.0114 107.186 75.3452 103.934C73.5931 100.513 69.5567 99.7346 66.6045 102.28L47.6667 118.607C47.1339 119.066 46.6881 119.614 46.3359 120.216C46.1224 120.544 45.9373 120.903 45.7858 121.294L46.6059 121.612C46.7359 121.277 46.8932 120.972 47.0724 120.697L47.0843 120.679L47.0952 120.66C47.4016 120.136 47.7863 119.665 48.241 119.273L67.1788 102.946C68.4649 101.837 69.9434 101.483 71.2604 101.734C72.5769 101.984 73.8033 102.853 74.5624 104.335C76.033 107.205 75.1055 111.161 72.5023 113.058L58.3151 123.398Z" fill="black"/>
<path d="M68.401 107.302C69.5092 95.3358 84.5627 90.0434 94.2598 99.0177C103.957 107.992 94.2598 152.403 94.2598 152.403C90.1039 154.167 68.401 156.085 68.401 156.085C68.401 156.085 67.0157 122.259 68.401 107.302Z" fill="black"/>
<path fill-rule="evenodd" clip-rule="evenodd" d="M68.8386 107.342C69.9077 95.7989 84.4866 90.5725 93.9608 99.3406C95.096 100.391 95.9741 101.988 96.6247 104.022C97.274 106.053 97.6865 108.489 97.9122 111.182C98.3635 116.569 98.0632 122.931 97.4582 129.032C96.8536 135.13 95.9464 140.95 95.19 145.247C94.8119 147.396 94.4716 149.162 94.226 150.391C94.1031 151.006 94.004 151.486 93.9356 151.812C93.9133 151.918 93.8943 152.008 93.8787 152.081C92.8285 152.474 90.8509 152.887 88.3949 153.289C85.7852 153.715 82.6901 154.119 79.7202 154.469C76.7512 154.818 73.9113 155.113 71.8135 155.32C70.7646 155.424 69.9015 155.505 69.3007 155.561C69.1153 155.578 68.955 155.593 68.8218 155.605C68.8122 155.358 68.7991 155.015 68.7833 154.586C68.7482 153.633 68.6995 152.254 68.6454 150.552C68.5372 147.149 68.4074 142.455 68.3209 137.295C68.1477 126.966 68.1485 114.793 68.8386 107.342ZM68.4007 156.085C67.9613 156.103 67.9613 156.103 67.9612 156.103L67.9612 156.101L67.9573 156.005C67.9547 155.94 67.9509 155.844 67.946 155.719C67.9362 155.467 67.922 155.096 67.9044 154.618C67.8692 153.664 67.8205 152.283 67.7663 150.58C67.658 147.173 67.5281 142.475 67.4415 137.31C67.2684 126.986 67.2676 114.767 67.9628 107.261C69.1101 94.8729 84.6383 89.5145 94.5582 98.695C95.8472 99.888 96.7873 101.643 97.4625 103.754C98.1389 105.87 98.5597 108.376 98.7886 111.109C99.2464 116.573 98.9407 122.996 98.3335 129.119C97.726 135.246 96.815 141.089 96.0562 145.4C95.6768 147.556 95.3352 149.329 95.0884 150.564C94.965 151.181 94.8653 151.664 94.7964 151.992C94.762 152.157 94.7352 152.283 94.717 152.368L94.6963 152.464L94.6893 152.496C94.6892 152.497 94.6891 152.497 94.2595 152.403L94.6891 152.497L94.6406 152.719L94.4313 152.808C93.335 153.273 91.145 153.731 88.5367 154.157C85.9082 154.586 82.7984 154.992 79.823 155.342C76.8468 155.693 74.0012 155.988 71.8999 156.195C70.8492 156.299 69.9843 156.381 69.382 156.437C69.0809 156.465 68.8454 156.486 68.6851 156.501L68.4404 156.523L68.4397 156.523C68.4395 156.523 68.4394 156.523 68.4007 156.085ZM68.4007 156.085L68.4397 156.523L67.9801 156.564L67.9612 156.103L68.4007 156.085Z" fill="black"/>
<path d="M71.8523 83.707C71.5234 81.7918 72.8093 79.9726 74.7243 79.6437L81.3289 78.5094C83.2439 78.1805 85.0629 79.4665 85.3918 81.3816L87.7287 94.9904C88.0576 96.9056 86.7717 98.7248 84.8567 99.0537L78.2521 100.188C76.3371 100.517 74.5181 99.2309 74.1892 97.3158L71.8523 83.707Z" fill="white"/>
<path fill-rule="evenodd" clip-rule="evenodd" d="M81.4778 79.3764L74.8731 80.5107C73.4369 80.7573 72.4725 82.1217 72.7192 83.5581L75.0561 97.1669C75.3027 98.6033 76.667 99.5677 78.1033 99.321L84.7079 98.1867C86.1441 97.9401 87.1085 96.5757 86.8618 95.1393L84.5249 81.5305C84.2783 80.0941 82.914 79.1297 81.4778 79.3764ZM74.7243 79.6437C72.8093 79.9726 71.5234 81.7918 71.8523 83.707L74.1892 97.3158C74.5181 99.2309 76.3371 100.517 78.2521 100.188L84.8567 99.0537C86.7717 98.7248 88.0576 96.9056 87.7287 94.9904L85.3918 81.3816C85.0629 79.4665 83.2439 78.1805 81.3289 78.5094L74.7243 79.6437Z" fill="black"/>
<path fill-rule="evenodd" clip-rule="evenodd" d="M85.4496 67.6164C85.3627 67.8432 85.4762 68.0975 85.703 68.1844L92.893 70.9389L88.9734 74.7527C88.7993 74.9221 88.7955 75.2005 88.9648 75.3746C89.1342 75.5487 89.4126 75.5525 89.5867 75.3831L94.4926 70.6098L86.0176 67.363C85.7908 67.2761 85.5365 67.3895 85.4496 67.6164Z" fill="black"/>
<path d="M63.4103 76.0584C59.4504 67.0322 63.4223 60.9483 69.9926 58.1171C90.0276 49.4839 90.3826 73.5197 92.2372 79.2805C94.4746 86.2301 84.2647 90.9647 77.4855 91.4105C70.7063 91.8563 68.3602 87.3411 63.4103 76.0584Z" fill="white"/>
<path fill-rule="evenodd" clip-rule="evenodd" d="M62.3514 64.5876C63.7272 61.4557 66.4632 59.1595 69.8199 57.7131C74.8943 55.5265 78.7988 55.3766 81.8217 56.5621C84.8405 57.746 86.8881 60.226 88.3273 63.1043C89.7659 65.9816 90.6194 69.3018 91.2285 72.24C91.4485 73.3012 91.638 74.3197 91.8111 75.25C91.8776 75.6075 91.9416 75.952 92.0041 76.2809C92.2312 77.4764 92.4351 78.4555 92.6572 79.1456C93.8661 82.9006 91.6724 85.9987 88.4901 88.1488C85.299 90.3048 80.975 91.6218 77.5157 91.8493C75.7699 91.9641 74.2795 91.7612 72.9502 91.1905C71.6206 90.6197 70.4836 89.6944 69.4243 88.4128C67.3242 85.8719 65.4757 81.8577 63.009 76.235C60.9914 71.6361 60.9719 67.7278 62.3514 64.5876ZM63.1567 64.9414C61.8975 67.8076 61.8721 71.4543 63.8144 75.8816C66.2976 81.5417 68.0971 85.4264 70.1022 87.8524C71.0956 89.0541 72.1256 89.8792 73.2972 90.3822C74.4692 90.8854 75.8142 91.0797 77.458 90.9716C80.7779 90.7533 84.9485 89.4801 87.9978 87.4199C91.0559 85.3538 92.8485 82.6098 91.82 79.4152C91.5785 78.665 91.3656 77.6329 91.14 76.445C91.0764 76.1101 91.0116 75.762 90.9447 75.4023C90.7722 74.4747 90.5853 73.4703 90.3673 72.4185C89.7621 69.4995 88.9269 66.2702 87.5406 63.4977C86.1548 60.7261 84.2411 58.4558 81.5006 57.381C78.7641 56.3078 75.1111 56.3909 70.168 58.5209C66.9545 59.9056 64.4194 62.067 63.1567 64.9414Z" fill="black"/>
<path d="M88.0985 64.1856C85.597 64.2354 83.5932 68.3961 82.8958 68.769C82.1984 69.1419 81.5333 68.2833 80.2772 68.5135C78.707 68.8012 78.5206 72.9715 81.666 74.6011C82.2229 74.8896 81.666 80.9694 81.666 80.9694C80.7876 84.5245 68.8588 86.4659 69.072 87.0003C69.0762 87.0077 69.0784 87.0115 69.0784 87.0115C69.0756 87.0078 69.0735 87.0041 69.072 87.0003C68.8864 86.6761 64.7359 79.4218 63.9319 77.6126C60.9218 70.8396 61.7204 62.7408 66.8408 59.9337C71.9612 57.1265 76.2786 56.1383 81.1619 56.8006C84.4617 57.2481 88.0666 63.0068 88.0985 64.1856Z" fill="black"/>
<path fill-rule="evenodd" clip-rule="evenodd" d="M68.6655 61.5268C68.5283 61.109 68.5281 61.1091 68.5279 61.1091L68.5274 61.1093L68.5263 61.1096L68.5232 61.1107L68.5137 61.1139C68.506 61.1166 68.4954 61.1203 68.4821 61.1251C68.4554 61.1346 68.4179 61.1486 68.3708 61.1672C68.2765 61.2044 68.1434 61.2605 67.9811 61.3381C67.6569 61.4931 67.214 61.735 66.7309 62.086C65.7647 62.7881 64.629 63.9332 63.9717 65.6954C63.3178 67.4481 63.2878 69.4119 63.5206 71.0909C63.7522 72.7618 64.2537 74.2172 64.7248 74.9573C64.8553 75.1622 65.1271 75.2225 65.332 75.0921C65.5369 74.9617 65.5972 74.6898 65.4668 74.4849C65.088 73.8899 64.6137 72.5708 64.3918 70.9702C64.1711 69.3777 64.21 67.5731 64.7957 66.0028C65.378 64.442 66.3831 63.426 67.2479 62.7977C67.6804 62.4835 68.0755 62.2679 68.3604 62.1317C68.5027 62.0637 68.617 62.0157 68.6939 61.9853C68.7323 61.9701 68.7614 61.9594 68.78 61.9527C68.7892 61.9494 68.7959 61.947 68.7997 61.9457L68.803 61.9446L68.8032 61.9445C68.8033 61.9445 68.8034 61.9445 68.8035 61.9444C69.0338 61.8683 69.159 61.6201 69.0833 61.3896C69.0075 61.1588 68.759 61.0332 68.5283 61.109L68.6655 61.5268Z" fill="white"/>
<path fill-rule="evenodd" clip-rule="evenodd" d="M91.7008 77.8327C91.9256 77.9246 92.0332 78.1814 91.9413 78.4063C91.7842 78.7903 91.2298 79.5592 90.2149 79.5592C89.3633 79.5592 88.7984 79.2722 88.572 79.0263C88.4075 78.8475 88.4191 78.5693 88.5978 78.4048C88.7765 78.2403 89.0547 78.2518 89.2192 78.4306C89.2191 78.4304 89.2192 78.4306 89.2197 78.431C89.2267 78.437 89.299 78.4985 89.4657 78.5605C89.6335 78.623 89.8812 78.6795 90.2149 78.6795C90.7353 78.6795 91.0444 78.2756 91.1272 78.0732C91.2192 77.8484 91.476 77.7407 91.7008 77.8327Z" fill="black"/>
<path d="M87.1402 69.4993C87.3704 70.3333 87.3639 71.0627 87.1256 71.1284C86.8874 71.1942 86.5076 70.5715 86.2774 69.7375C86.0472 68.9036 86.0537 68.1742 86.292 68.1084C86.5302 68.0427 86.91 68.6654 87.1402 69.4993Z" fill="black"/>
<path d="M67.8057 155.426C67.8057 150.933 71.4482 147.29 75.9415 147.29C80.4348 147.29 84.0774 150.933 84.0774 155.426V185.333C84.0774 189.827 80.4348 193.47 75.9415 193.47C71.4482 193.47 67.8057 189.827 67.8057 185.333V155.426Z" fill="black"/>
<path d="M105.607 173.458C105.607 168.964 109.25 165.321 113.743 165.321C118.236 165.321 121.879 168.964 121.879 173.458V202.925C121.879 207.419 118.236 211.061 113.743 211.061C109.25 211.061 105.607 207.419 105.607 202.925V173.458Z" fill="black"/>
<path d="M83.7484 165.503C79.8476 163.251 78.511 158.262 80.7632 154.361C83.0154 150.46 88.0034 149.123 91.9042 151.376L117.508 166.159C121.409 168.412 122.746 173.4 120.493 177.301C118.241 181.202 113.253 182.539 109.352 180.287L83.7484 165.503Z" fill="black"/>
<path d="M67.8057 184.893C67.8057 180.4 71.4482 176.757 75.9415 176.757C80.4348 176.757 84.0774 180.4 84.0774 184.893V214.8C84.0774 219.294 80.4348 222.937 75.9415 222.937C71.4482 222.937 67.8057 219.294 67.8057 214.8V184.893Z" fill="black"/>
<path fill-rule="evenodd" clip-rule="evenodd" d="M80.0758 161.309C80.3095 161.242 80.5527 161.378 80.619 161.612C81.1597 163.517 82.531 164.836 84.5789 165.986C84.7906 166.105 84.8659 166.373 84.7469 166.585C84.628 166.797 84.3599 166.872 84.1481 166.753C82.0012 165.547 80.4034 164.074 79.7729 161.852C79.7065 161.618 79.8422 161.375 80.0758 161.309Z" fill="#E4ECF4"/>
<path d="M90.0686 138.545C90.1059 137.302 91.1393 136.395 92.3766 136.52C93.6139 136.645 94.5867 137.754 94.5493 138.998L94.3235 146.509C94.2862 147.752 93.2528 148.658 92.0155 148.533C90.7782 148.408 89.8054 147.299 89.8428 146.056L90.0686 138.545Z" fill="white"/>
<path fill-rule="evenodd" clip-rule="evenodd" d="M93.4484 146.42L93.6742 138.909C93.697 138.152 93.1042 137.476 92.3502 137.4C91.5962 137.323 90.9664 137.876 90.9437 138.633L90.7179 146.144C90.6951 146.902 91.2879 147.578 92.0419 147.654C92.796 147.73 93.4257 147.178 93.4484 146.42ZM92.3766 136.52C91.1393 136.395 90.1059 137.302 90.0686 138.545L89.8428 146.056C89.8054 147.299 90.7782 148.408 92.0155 148.533C93.2528 148.658 94.2862 147.752 94.3235 146.509L94.5493 138.998C94.5867 137.754 93.6139 136.645 92.3766 136.52Z" fill="black"/>
<path d="M102.088 209.05C102.088 205.75 105.082 203.259 108.327 203.86L113.001 204.726C113.637 204.844 114.288 204.844 114.923 204.726L119.598 203.86C122.842 203.259 125.836 205.75 125.836 209.05V217.219H102.088V209.05Z" fill="#FF4B78"/>
<path fill-rule="evenodd" clip-rule="evenodd" d="M124.957 216.339V209.05C124.957 206.3 122.462 204.225 119.758 204.725L115.083 205.591C114.342 205.728 113.582 205.728 112.841 205.591L108.166 204.725C105.463 204.225 102.968 206.3 102.968 209.05V216.339H124.957ZM108.327 203.86C105.082 203.259 102.088 205.75 102.088 209.05V217.219H125.836V209.05C125.836 205.75 122.842 203.259 119.598 203.86L114.923 204.726C114.288 204.844 113.637 204.844 113.001 204.726L108.327 203.86Z" fill="black"/>
<path d="M79.4968 226.454C79.4968 223.54 81.8596 221.177 84.7741 221.177H88.2923C91.2069 221.177 93.5696 223.54 93.5696 226.454V229.973H79.4968V226.454Z" fill="white"/>
<path fill-rule="evenodd" clip-rule="evenodd" d="M88.7243 54.1955C89.0891 54.723 89.2309 55.4335 89.1112 56.3317C88.9255 57.7243 87.6655 58.3599 86.3909 58.527C85.0991 58.6965 83.5816 58.4316 82.4696 57.8357C81.7547 57.4953 81.1092 57.2906 80.5745 57.1211C80.4354 57.0769 80.3038 57.0352 80.1805 56.9941C79.95 56.9173 79.8255 56.6682 79.9023 56.4378C79.9791 56.2073 80.2282 56.0828 80.4586 56.1596C80.5662 56.1955 80.6865 56.2335 80.8176 56.2751C81.3563 56.4456 82.078 56.6741 82.8579 57.0463L82.8676 57.0509L82.8771 57.056C83.8198 57.5641 85.1553 57.8019 86.2766 57.6549C87.4188 57.5051 88.1345 57.0021 88.2393 56.2155C88.3395 55.4645 88.2064 54.993 88.0009 54.6958C87.795 54.3982 87.4722 54.2114 87.0655 54.1185C86.6559 54.0248 86.1878 54.0339 85.7507 54.1094C85.3105 54.1854 84.9397 54.322 84.7237 54.4517C84.5154 54.5767 84.2453 54.5091 84.1203 54.3008C83.9953 54.0926 84.0629 53.8224 84.2711 53.6974C84.6048 53.4972 85.086 53.3315 85.601 53.2426C86.1191 53.1531 86.7092 53.1347 87.2615 53.261C87.8169 53.3879 88.3598 53.6685 88.7243 54.1955Z" fill="black"/>
<path d="M69.9851 154.434H76.5817V157.732C76.5817 159.554 75.105 161.031 73.2834 161.031C71.4618 161.031 69.9851 159.554 69.9851 157.732V154.434Z" fill="black"/>
<path fill-rule="evenodd" clip-rule="evenodd" d="M75.7022 155.313H70.8647V157.732C70.8647 159.068 71.9476 160.151 73.2834 160.151C74.6193 160.151 75.7022 159.068 75.7022 157.732V155.313ZM69.9851 154.434V157.732C69.9851 159.554 71.4618 161.031 73.2834 161.031C75.105 161.031 76.5817 159.554 76.5817 157.732V154.434H69.9851Z" fill="white"/>
<path d="M83.6187 154.326H90.2153V157.625C90.2153 159.446 88.7386 160.923 86.917 160.923C85.0954 160.923 83.6187 159.446 83.6187 157.625V154.326Z" fill="black"/>
<path fill-rule="evenodd" clip-rule="evenodd" d="M89.3357 155.206H84.4982V157.625C84.4982 158.961 85.5811 160.044 86.917 160.044C88.2528 160.044 89.3357 158.961 89.3357 157.625V155.206ZM83.6187 154.326V157.625C83.6187 159.446 85.0954 160.923 86.917 160.923C88.7386 160.923 90.2153 159.446 90.2153 157.625V154.326H83.6187Z" fill="white"/>
<path fill-rule="evenodd" clip-rule="evenodd" d="M96.759 101.076C93.6496 98.8444 89.2998 99.7187 87.2941 102.979L86.3884 104.451C84.4709 107.568 85.4564 111.65 88.5847 113.548L106.904 124.665L92.6889 133.283C90.6219 134.536 89.7184 137.068 90.5253 139.347C91.5294 142.182 94.7568 143.537 97.484 142.268L121.604 131.044C124.372 129.756 125.818 126.781 125.288 123.912C125.055 122.288 124.184 120.763 122.755 119.737L96.759 101.076Z" fill="white"/>
<path fill-rule="evenodd" clip-rule="evenodd" d="M108.6 124.665L93.1449 134.035C91.4344 135.072 90.6867 137.167 91.3544 139.053C92.1854 141.399 94.8561 142.521 97.1129 141.471L121.233 130.246C123.628 129.131 124.882 126.556 124.423 124.072L124.42 124.055L124.417 124.037C124.217 122.641 123.469 121.333 122.242 120.452L96.2461 101.791C93.5514 99.8566 89.7815 100.614 88.0432 103.44L87.1375 104.912C85.4757 107.613 86.3298 111.151 89.041 112.796L108.6 124.665ZM92.6889 133.283C90.6219 134.536 89.7184 137.068 90.5253 139.347C91.5294 142.182 94.7568 143.537 97.484 142.268L121.604 131.044C124.372 129.756 125.818 126.781 125.288 123.912C125.055 122.288 124.184 120.763 122.755 119.737L96.759 101.076C93.6496 98.8444 89.2998 99.7187 87.2941 102.979L86.3884 104.451C84.4709 107.568 85.4564 111.65 88.5847 113.548L106.904 124.665L92.6889 133.283Z" fill="black"/>
<path d="M97.1753 143.678C98.1999 143.121 99.379 143.788 99.3761 144.924C99.3745 145.521 99.0306 146.087 98.4924 146.38L97.2329 147.065C96.2151 147.619 95.0351 147.7 94.0193 147.286L92.7593 146.772C92.2195 146.552 91.8764 146.03 91.878 145.43C91.8809 144.294 93.0617 143.462 94.0872 143.875L94.7986 144.161C95.3409 144.379 95.9693 144.335 96.5116 144.039L97.1753 143.678Z" fill="white"/>
<path fill-rule="evenodd" clip-rule="evenodd" d="M96.8582 146.297L98.1177 145.611C98.3497 145.485 98.4979 145.241 98.4986 144.984C98.4998 144.494 97.9916 144.207 97.5501 144.447L96.8864 144.808C96.1069 145.232 95.2036 145.296 94.424 144.983L93.7126 144.696C93.2683 144.518 92.7567 144.878 92.7555 145.37C92.7548 145.63 92.9034 145.857 93.1373 145.952L94.3973 146.466C95.1752 146.783 96.0788 146.721 96.8582 146.297ZM99.3761 144.924C99.379 143.788 98.1999 143.121 97.1753 143.678L96.5116 144.039C95.9693 144.335 95.3409 144.379 94.7986 144.161L94.0872 143.875C93.0617 143.462 91.8809 144.294 91.878 145.43C91.8764 146.03 92.2195 146.552 92.7593 146.772L94.0193 147.286C95.0351 147.7 96.2151 147.619 97.2329 147.065L98.4924 146.38C99.0306 146.087 99.3745 145.521 99.3761 144.924Z" fill="black"/>
<path d="M96.7585 146.21C97.7831 145.652 98.9623 146.319 98.9593 147.455C98.9578 148.052 98.6139 148.619 98.0757 148.911L96.8162 149.597C95.7983 150.15 94.6183 150.231 93.6025 149.817L92.3425 149.304C91.8027 149.083 91.4596 148.561 91.4612 147.962C91.4641 146.825 92.645 145.993 93.6705 146.406L94.3818 146.692C94.9242 146.91 95.5526 146.866 96.0948 146.571L96.7585 146.21Z" fill="white"/>
<path fill-rule="evenodd" clip-rule="evenodd" d="M96.4415 148.828L97.701 148.143C97.9329 148.017 98.0812 147.772 98.0818 147.515C98.0831 147.026 97.5749 146.738 97.1333 146.978L96.4696 147.339C95.6901 147.764 94.7868 147.828 94.0073 147.514L93.2959 147.228C92.8516 147.049 92.34 147.409 92.3387 147.902C92.338 148.161 92.4867 148.388 92.7205 148.483L93.9805 148.997C94.7584 149.314 95.662 149.252 96.4415 148.828ZM98.9593 147.455C98.9623 146.319 97.7831 145.652 96.7585 146.21L96.0948 146.571C95.5526 146.866 94.9242 146.91 94.3818 146.692L93.6705 146.406C92.645 145.993 91.4641 146.825 91.4612 147.962C91.4596 148.561 91.8027 149.083 92.3425 149.304L93.6025 149.817C94.6183 150.231 95.7983 150.15 96.8162 149.597L98.0757 148.911C98.6139 148.619 98.9578 148.052 98.9593 147.455Z" fill="black"/>
<path d="M97.3081 141.484C98.3327 140.926 99.5118 141.594 99.5089 142.73C99.5074 143.326 99.1634 143.893 98.6252 144.186L97.3657 144.871C96.3479 145.425 95.1679 145.506 94.1521 145.092L92.8921 144.578C92.3523 144.358 92.0092 143.835 92.0108 143.236C92.0137 142.099 93.1945 141.268 94.22 141.68L94.9314 141.967C95.4737 142.185 96.1021 142.14 96.6444 141.845L97.3081 141.484Z" fill="white"/>
<path fill-rule="evenodd" clip-rule="evenodd" d="M96.991 144.102L98.2505 143.417C98.4825 143.291 98.6307 143.047 98.6314 142.79C98.6327 142.3 98.1244 142.012 97.6829 142.253L97.0192 142.614C96.2397 143.038 95.3364 143.102 94.5568 142.788L93.8454 142.502C93.4011 142.323 92.8895 142.684 92.8883 143.176C92.8876 143.436 93.0362 143.662 93.2701 143.758L94.5301 144.271C95.308 144.588 96.2116 144.526 96.991 144.102ZM99.5089 142.73C99.5118 141.594 98.3327 140.926 97.3081 141.484L96.6444 141.845C96.1021 142.14 95.4737 142.185 94.9314 141.967L94.22 141.68C93.1945 141.268 92.0137 142.099 92.0108 143.236C92.0092 143.835 92.3523 144.358 92.8921 144.578L94.1521 145.092C95.1679 145.506 96.3479 145.425 97.3657 144.871L98.6252 144.186C99.1634 143.893 99.5074 143.326 99.5089 142.73Z" fill="black"/>
<path d="M102.088 216.339H264.805C272.335 216.339 278.438 222.443 278.438 229.973H102.088V216.339Z" fill="white"/>
<path fill-rule="evenodd" clip-rule="evenodd" d="M278.41 229.093C278.429 229.384 278.438 229.677 278.438 229.973H102.088V216.339H264.805C272.039 216.339 277.957 221.973 278.41 229.093ZM277.529 229.093C277.077 222.46 271.553 217.218 264.805 217.218H102.968V229.093H277.529Z" fill="black"/>
<path d="M7.09692 74.8284C7.09692 72.6423 8.86897 70.8701 11.0549 70.8701C13.2408 70.8701 15.0129 72.6423 15.0129 74.8284V96.8188C15.0129 99.0049 13.2408 100.777 11.0549 100.777C8.86897 100.777 7.09692 99.0049 7.09692 96.8188V74.8284Z" fill="#2C73FB"/>
<path d="M18.5312 89.5616C18.5312 87.497 20.2049 85.8232 22.2693 85.8232C24.3338 85.8232 26.0074 87.497 26.0074 89.5616V97.0384C26.0074 99.103 24.3338 100.777 22.2693 100.777C20.2049 100.777 18.5312 99.103 18.5312 97.0384V89.5616Z" fill="#FF4B78"/>
<path d="M29.9653 81.6456C29.9653 79.581 31.6389 77.9072 33.7034 77.9072C35.7679 77.9072 37.4415 79.581 37.4415 81.6456V97.0389C37.4415 99.1035 35.7679 100.777 33.7034 100.777C31.6389 100.777 29.9653 99.1035 29.9653 97.0389V81.6456Z" fill="#47DB99"/>
<path d="M229.623 119.688C229.623 118.474 230.607 117.489 231.821 117.489C233.036 117.489 234.02 118.474 234.02 119.688V132.443C234.02 133.657 233.036 134.642 231.821 134.642C230.607 134.642 229.623 133.657 229.623 132.443V119.688Z" fill="#47DB99"/>
<path d="M252.051 117.05C252.051 115.593 253.233 114.411 254.69 114.411C256.147 114.411 257.329 115.593 257.329 117.05V132.003C257.329 133.461 256.147 134.642 254.69 134.642C253.233 134.642 252.051 133.461 252.051 132.003V117.05Z" fill="#E4ECF4"/>
<path d="M236.659 126.506C236.659 125.17 237.742 124.087 239.078 124.087C240.414 124.087 241.496 125.17 241.496 126.506V132.223C241.496 133.559 240.414 134.642 239.078 134.642C237.742 134.642 236.659 133.559 236.659 132.223V126.506Z" fill="#FF4B78"/>
<path d="M244.137 121.888C244.137 120.43 245.318 119.249 246.776 119.249C248.233 119.249 249.414 120.43 249.414 121.888V132.003C249.414 133.461 248.233 134.642 246.776 134.642C245.318 134.642 244.137 133.461 244.137 132.003V121.888Z" fill="#2C73FB"/>
<path d="M259.967 131.564C259.967 130.106 261.148 128.925 262.605 128.925C264.063 128.925 265.244 130.106 265.244 131.564V132.003C265.244 133.461 264.063 134.642 262.605 134.642C261.148 134.642 259.967 133.461 259.967 132.003V131.564Z" fill="#47DB99"/>
<path fill-rule="evenodd" clip-rule="evenodd" d="M284.156 120.128C284.156 119.885 284.352 119.688 284.595 119.688H312.301C312.544 119.688 312.741 119.885 312.741 120.128C312.741 120.371 312.544 120.568 312.301 120.568H284.595C284.352 120.568 284.156 120.371 284.156 120.128Z" fill="black"/>
<path fill-rule="evenodd" clip-rule="evenodd" d="M284.156 124.527C284.156 124.284 284.352 124.087 284.595 124.087H312.301C312.544 124.087 312.741 124.284 312.741 124.527C312.741 124.77 312.544 124.967 312.301 124.967H284.595C284.352 124.967 284.156 124.77 284.156 124.527Z" fill="black"/>
<path fill-rule="evenodd" clip-rule="evenodd" d="M284.156 128.924C284.156 128.681 284.352 128.484 284.595 128.484H312.301C312.544 128.484 312.741 128.681 312.741 128.924C312.741 129.167 312.544 129.364 312.301 129.364H284.595C284.352 129.364 284.156 129.167 284.156 128.924Z" fill="black"/>
<path fill-rule="evenodd" clip-rule="evenodd" d="M284.156 133.323C284.156 133.08 284.352 132.883 284.595 132.883H312.301C312.544 132.883 312.741 133.08 312.741 133.323C312.741 133.566 312.544 133.762 312.301 133.762H284.595C284.352 133.762 284.156 133.566 284.156 133.323Z" fill="black"/>
<path fill-rule="evenodd" clip-rule="evenodd" d="M284.156 157.512C284.156 157.269 284.352 157.072 284.595 157.072H312.301C312.544 157.072 312.741 157.269 312.741 157.512C312.741 157.755 312.544 157.952 312.301 157.952H284.595C284.352 157.952 284.156 157.755 284.156 157.512Z" fill="black"/>
<path fill-rule="evenodd" clip-rule="evenodd" d="M284.156 153.114C284.156 152.871 284.352 152.674 284.595 152.674H298.668C298.911 152.674 299.108 152.871 299.108 153.114C299.108 153.357 298.911 153.553 298.668 153.553H284.595C284.352 153.553 284.156 153.357 284.156 153.114Z" fill="black"/>
<path fill-rule="evenodd" clip-rule="evenodd" d="M284.156 166.308C284.156 166.065 284.352 165.868 284.595 165.868H312.301C312.544 165.868 312.741 166.065 312.741 166.308C312.741 166.551 312.544 166.748 312.301 166.748H284.595C284.352 166.748 284.156 166.551 284.156 166.308Z" fill="black"/>
<path fill-rule="evenodd" clip-rule="evenodd" d="M284.156 161.911C284.156 161.668 284.352 161.471 284.595 161.471H298.668C298.911 161.471 299.108 161.668 299.108 161.911C299.108 162.153 298.911 162.35 298.668 162.35H284.595C284.352 162.35 284.156 162.153 284.156 161.911Z" fill="black"/>
<path fill-rule="evenodd" clip-rule="evenodd" d="M284.156 87.1429C284.156 86.9 284.352 86.7031 284.595 86.7031H312.301C312.544 86.7031 312.741 86.9 312.741 87.1429C312.741 87.3858 312.544 87.5827 312.301 87.5827H284.595C284.352 87.5827 284.156 87.3858 284.156 87.1429Z" fill="black"/>
<path fill-rule="evenodd" clip-rule="evenodd" d="M284.156 91.5414C284.156 91.2985 284.352 91.1016 284.595 91.1016H312.301C312.544 91.1016 312.741 91.2985 312.741 91.5414C312.741 91.7843 312.544 91.9812 312.301 91.9812H284.595C284.352 91.9812 284.156 91.7843 284.156 91.5414Z" fill="black"/>
<path fill-rule="evenodd" clip-rule="evenodd" d="M284.156 95.9388C284.156 95.6959 284.352 95.499 284.595 95.499H298.668C298.911 95.499 299.108 95.6959 299.108 95.9388C299.108 96.1817 298.911 96.3786 298.668 96.3786H284.595C284.352 96.3786 284.156 96.1817 284.156 95.9388Z" fill="black"/>
<path fill-rule="evenodd" clip-rule="evenodd" d="M284.156 100.337C284.156 100.094 284.352 99.8975 284.595 99.8975H298.668C298.911 99.8975 299.108 100.094 299.108 100.337C299.108 100.58 298.911 100.777 298.668 100.777H284.595C284.352 100.777 284.156 100.58 284.156 100.337Z" fill="black"/>
<path d="M33.9233 205.012H22.929L24.9079 229.641H43.1586L45.1376 205.012H33.9233Z" fill="white"/>
<path fill-rule="evenodd" clip-rule="evenodd" d="M22.4517 204.571H45.6134L43.5637 230.08H24.5013L22.4517 204.571ZM23.4047 205.451L25.313 229.201H42.752L44.6603 205.451H23.4047Z" fill="black"/>
<path d="M22.8529 190.457C22.8491 190.455 22.8454 190.454 22.8416 190.452C21.7589 190.025 14.2647 196.22 10.759 198.849C7.24079 201.488 3.3306 200.216 1.9636 198.849C0.429275 197.315 -0.455165 192.912 7.46079 188.514C13.7936 184.995 20.3609 188.343 22.8529 190.457Z" fill="#47DB99"/>
<path fill-rule="evenodd" clip-rule="evenodd" d="M16.7005 186.946C19.4818 187.616 21.7836 188.988 23.0864 190.078C24.5199 190.693 26.0004 191.515 27.5007 192.55C32.7923 196.2 33.3431 202.413 32.9637 205.069L32.093 204.945C32.4466 202.469 31.9126 196.661 27.0014 193.274C25.5314 192.26 24.0895 191.463 22.7038 190.871C22.6936 190.872 22.6765 190.874 22.6509 190.879C22.577 190.893 22.4703 190.927 22.3273 190.988C22.0424 191.108 21.6692 191.312 21.2214 191.589C20.3288 192.14 19.1936 192.947 17.9721 193.857C16.7527 194.766 15.4567 195.771 14.2441 196.715C14.0979 196.829 13.9528 196.942 13.8092 197.054C12.7643 197.868 11.7973 198.621 11.0232 199.201C9.16783 200.593 7.19851 200.958 5.51116 200.789C3.83989 200.622 2.42008 199.927 1.65303 199.16C0.772474 198.28 0.122543 196.626 0.749013 194.624C1.3726 192.632 3.23831 190.357 7.24759 188.13C10.5312 186.305 13.874 186.265 16.7005 186.946ZM22.6807 190.861C22.6807 190.861 22.6807 190.861 22.6807 190.861L22.7574 190.667L22.7575 190.667L22.6807 190.861ZM19.7834 189.004C16.3935 188.268 13.4149 188.812 11.351 190.601L11.9271 191.265C14.0669 189.411 17.4734 188.995 21.5086 190.407C21.2771 190.529 21.0255 190.676 20.7592 190.84C19.8326 191.413 18.6722 192.239 17.4465 193.152C16.2188 194.067 14.9163 195.077 13.7039 196.021C13.5575 196.135 13.4124 196.248 13.269 196.36C12.2226 197.175 11.2627 197.922 10.4955 198.498C8.8327 199.745 7.08782 200.063 5.59877 199.914C4.09364 199.763 2.87486 199.138 2.27491 198.538C1.62114 197.885 1.06169 196.57 1.58841 194.887C2.11801 193.195 3.76806 191.069 7.67474 188.898C10.7239 187.204 13.8311 187.159 16.4945 187.801C17.7031 188.092 18.816 188.524 19.7834 189.004Z" fill="black"/>
<path d="M23.8144 171.487C22.8206 177.151 26.9189 184.675 29.0923 187.729C27.333 186.618 22.6549 183.439 18.0173 179.608C12.2203 174.818 9.73594 167.735 9.73584 161.7C9.73575 156.663 14.0836 146.29 21.744 146.082C29.4043 145.874 29.0923 154.2 27.1269 158.784C26.0271 161.35 25.0566 164.407 23.8144 171.487Z" fill="#47DB99"/>
<path fill-rule="evenodd" clip-rule="evenodd" d="M28.472 150.532C29.1343 153.279 28.5386 156.606 27.5305 158.957C26.449 161.48 25.4859 164.5 24.2469 171.562C23.771 174.274 24.5123 177.48 25.6741 180.424C26.8284 183.35 28.3728 185.957 29.4409 187.461C35.8021 195.174 34.7605 202.272 33.0997 205.227C32.9807 205.439 32.7126 205.514 32.5008 205.395C32.2891 205.276 32.2139 205.008 32.3329 204.796C33.8019 202.182 34.9029 195.496 28.797 188.062C26.9802 186.91 22.3391 183.749 17.7366 179.946C11.8223 175.06 9.29552 167.843 9.29541 161.699C9.29537 159.085 10.4134 155.152 12.4944 151.845C14.5739 148.541 17.6884 145.752 21.7314 145.642C23.7287 145.587 25.2544 146.09 26.3691 146.992C27.4803 147.891 28.1388 149.15 28.472 150.532ZM26.0785 185.173C23.9069 183.652 21.0943 181.579 18.2968 179.268C12.6169 174.575 10.1751 167.626 10.175 161.699C10.1749 159.277 11.2308 155.505 13.2388 152.314C15.2483 149.121 18.1379 146.619 21.7553 146.521C23.5882 146.471 24.8961 146.931 25.8159 147.676C26.7392 148.422 27.3163 149.492 27.6169 150.738C28.2224 153.249 27.6793 156.378 26.7221 158.61C25.6038 161.219 24.6259 164.312 23.3805 171.41C22.8627 174.362 23.6736 177.75 24.8559 180.747C25.3719 182.055 25.9634 183.3 26.5581 184.418C26.4335 184.302 26.3071 184.186 26.1789 184.07C20.1224 178.598 17.1829 173.315 16.2482 168.615C15.3142 163.918 16.3738 159.762 18.3902 156.517C18.5184 156.311 18.4551 156.04 18.2488 155.911C18.0425 155.783 17.7713 155.846 17.6431 156.053C15.5188 159.471 14.4045 163.853 15.3856 168.787C16.366 173.717 19.4305 179.159 25.5893 184.723C25.7555 184.873 25.9186 185.023 26.0785 185.173Z" fill="black"/>
<path d="M45.2963 188.579C42.3057 189.798 39.1534 193.05 37.9511 194.523C38.5613 184.848 45.4297 179.691 46.9718 178.817C49.1203 177.598 51.6908 178.304 52.2329 181.032C52.8781 184.279 50.4365 186.485 45.2963 188.579Z" fill="#47DB99"/>
<path fill-rule="evenodd" clip-rule="evenodd" d="M50.3579 178.033C51.493 178.456 52.3658 179.448 52.6637 180.947C53.0168 182.724 52.5135 184.23 51.2506 185.543C50.0126 186.831 48.0467 187.934 45.4617 188.987C44.0325 189.569 42.5398 190.65 41.2423 191.787C39.9744 192.897 38.9194 194.038 38.3261 194.759C37.7661 195.976 37.3326 197.505 36.8879 199.074C36.7911 199.416 36.6938 199.759 36.5945 200.102C36.0456 201.995 35.4303 203.887 34.4867 205.066C34.335 205.256 34.0582 205.287 33.8685 205.135C33.6789 204.983 33.6481 204.706 33.7999 204.517C34.6153 203.497 35.191 201.784 35.7497 199.857C35.8447 199.529 35.9391 199.196 36.034 198.861C36.4758 197.3 36.9299 195.697 37.517 194.413C38.1737 184.587 45.1453 179.347 46.7543 178.434C47.9221 177.772 49.2375 177.615 50.3579 178.033ZM40.4921 191.276C42.0753 189 43.5796 187.169 45.9918 185.447C46.1895 185.306 46.2354 185.031 46.0943 184.833C45.9532 184.636 45.6786 184.59 45.4809 184.731C42.366 186.954 40.6943 189.367 38.6294 192.453C39.9866 184.332 45.83 179.97 47.1882 179.2C48.1688 178.643 49.2129 178.544 50.0505 178.857C50.8733 179.164 51.5568 179.889 51.8011 181.118C52.0932 182.588 51.6982 183.809 50.6166 184.934C49.51 186.084 47.6851 187.131 45.1299 188.172C43.5684 188.809 41.9897 189.963 40.6628 191.125C40.6054 191.175 40.5486 191.226 40.4921 191.276Z" fill="black"/>
<path d="M229.623 78.7861H265.244V100.337H229.623V78.7861Z" fill="#E4ECF4"/>
<path d="M210.712 78.7861H219.508V87.5823H210.712V78.7861Z" fill="#E4ECF4"/>
<path d="M206.315 83.1846H215.111V91.9807H206.315V83.1846Z" fill="#47DB99"/>
<path fill-rule="evenodd" clip-rule="evenodd" d="M258.895 82.381C259.096 82.5169 259.149 82.7903 259.013 82.9916L252.629 92.4494L249.575 89.4773L245.308 94.6985L242.225 85.1332L236.615 96.5732C236.508 96.7913 236.244 96.8814 236.026 96.7744C235.808 96.6675 235.718 96.404 235.825 96.1859L242.394 82.7907L245.649 92.8908L249.501 88.1779L252.488 91.0853L258.284 82.4994C258.42 82.2981 258.693 82.2451 258.895 82.381Z" fill="black"/>
<path fill-rule="evenodd" clip-rule="evenodd" d="M43.5977 230.081L0.939453 230.081L0.939453 229.201L43.5977 229.201L43.5977 230.081Z" fill="black"/>
<path d="M215.111 109.133L215.111 110.452L206.315 110.452L206.315 109.133L215.111 109.133Z" fill="#E4ECF4"/>
<path d="M215.111 112.652L215.111 113.972L206.315 113.972L206.315 112.652L215.111 112.652Z" fill="#E4ECF4"/>
<path d="M215.111 116.158L215.111 117.478L206.315 117.478L206.315 116.158L215.111 116.158Z" fill="#E4ECF4"/>
<path d="M215.111 119.484L215.111 120.804L206.315 120.804L206.315 119.484L215.111 119.484Z" fill="#E4ECF4"/>
<path d="M215.111 123.182L215.111 124.501L206.315 124.501L206.315 123.182L215.111 123.182Z" fill="#E4ECF4"/>
<path d="M215.111 126.509L215.111 127.828L206.315 127.828L206.315 126.509L215.111 126.509Z" fill="#E4ECF4"/>
<path d="M215.111 129.836L215.111 131.155L206.315 131.155L206.315 129.836L215.111 129.836Z" fill="#E4ECF4"/>
<path d="M215.111 133.533L215.111 134.853L206.315 134.853L206.315 133.533L215.111 133.533Z" fill="#E4ECF4"/>
<path d="M15.0125 109.133L15.0125 110.452L7.09649 110.452L7.09649 109.133L15.0125 109.133Z" fill="#E4ECF4"/>
<path d="M15.0125 112.652L15.0125 113.972L7.09649 113.972L7.09649 112.652L15.0125 112.652Z" fill="#E4ECF4"/>
<path d="M15.0125 116.158L15.0125 117.478L7.09649 117.478L7.09649 116.158L15.0125 116.158Z" fill="#E4ECF4"/>
<path d="M15.0125 119.484L15.0125 120.804L7.09649 120.804L7.09649 119.484L15.0125 119.484Z" fill="#E4ECF4"/>
<path d="M15.0125 123.182L15.0125 124.501L7.09649 124.501L7.09649 123.182L15.0125 123.182Z" fill="#E4ECF4"/>
<path d="M15.0125 126.509L15.0125 127.828L7.09649 127.828L7.09649 126.509L15.0125 126.509Z" fill="#E4ECF4"/>
<path d="M15.0125 129.836L15.0125 131.155L7.09649 131.155L7.09649 129.836L15.0125 129.836Z" fill="#E4ECF4"/>
<path d="M15.0125 133.533L15.0125 134.853L7.09649 134.853L7.09649 133.533L15.0125 133.533Z" fill="#E4ECF4"/>
<path d="M26.4478 109.133L26.4478 110.452L18.5318 110.452L18.5318 109.133L26.4478 109.133Z" fill="#E4ECF4"/>
<path d="M26.4478 112.652L26.4478 113.972L18.5318 113.972L18.5318 112.652L26.4478 112.652Z" fill="#E4ECF4"/>
<path d="M26.4478 116.158L26.4478 117.478L18.5318 117.478L18.5318 116.158L26.4478 116.158Z" fill="#E4ECF4"/>
<path d="M26.4478 119.484L26.4478 120.804L18.5318 120.804L18.5318 119.484L26.4478 119.484Z" fill="#E4ECF4"/>
<path d="M26.4478 123.182L26.4478 124.501L18.5318 124.501L18.5318 123.182L26.4478 123.182Z" fill="#E4ECF4"/>
<path d="M26.4478 126.509L26.4478 127.828L18.5318 127.828L18.5318 126.509L26.4478 126.509Z" fill="#E4ECF4"/>
<path d="M26.4478 129.836L26.4478 131.155L18.5318 131.155L18.5318 129.836L26.4478 129.836Z" fill="#E4ECF4"/>
<path d="M26.4478 133.533L26.4478 134.853L18.5318 134.853L18.5318 133.533L26.4478 133.533Z" fill="#E4ECF4"/>
<path fill-rule="evenodd" clip-rule="evenodd" d="M89.547 222.057H86.0288C83.6 222.057 81.631 224.026 81.631 226.455V229.094H93.9447V226.455C93.9447 224.026 91.9758 222.057 89.547 222.057ZM86.0288 221.178C83.1142 221.178 80.7515 223.541 80.7515 226.455V229.974H94.8243V226.455C94.8243 223.541 92.4615 221.178 89.547 221.178H86.0288Z" fill="black"/>
<path d="M64.4792 221.805C64.4792 218.505 67.4731 216.014 70.7175 216.615L75.3922 217.481C76.0275 217.599 76.6789 217.599 77.3141 217.481L81.9889 216.615C85.2332 216.014 88.2271 218.505 88.2271 221.805V229.974H64.4792V221.805Z" fill="#FF4B78"/>
<path fill-rule="evenodd" clip-rule="evenodd" d="M87.3476 229.094V221.805C87.3476 219.055 84.8527 216.979 82.149 217.48L77.4743 218.346C76.7332 218.483 75.9732 218.483 75.2321 218.346L70.5573 217.48C67.8537 216.979 65.3588 219.055 65.3588 221.805V229.094H87.3476ZM70.7175 216.615C67.4731 216.014 64.4792 218.505 64.4792 221.805V229.974H88.2271V221.805C88.2271 218.505 85.2332 216.014 81.9889 216.615L77.3141 217.481C76.6789 217.599 76.0275 217.599 75.3922 217.481L70.7175 216.615Z" fill="black"/>
<path fill-rule="evenodd" clip-rule="evenodd" d="M68.8777 229.421V227.002H69.7572V229.421H68.8777Z" fill="black"/>
<path fill-rule="evenodd" clip-rule="evenodd" d="M73.4946 229.421V227.002H74.3742V229.421H73.4946Z" fill="black"/>
<path fill-rule="evenodd" clip-rule="evenodd" d="M77.8923 229.421V227.002H78.7719V229.421H77.8923Z" fill="black"/>
<path fill-rule="evenodd" clip-rule="evenodd" d="M106.486 216.667V214.248H107.366V216.667H106.486Z" fill="black"/>
<path fill-rule="evenodd" clip-rule="evenodd" d="M111.103 216.667V214.248H111.983V216.667H111.103Z" fill="black"/>
<path fill-rule="evenodd" clip-rule="evenodd" d="M115.502 216.667V214.248H116.381V216.667H115.502Z" fill="black"/>
<path fill-rule="evenodd" clip-rule="evenodd" d="M263.755 5.13812C268.467 5.98818 273.428 9.10659 278.635 14.366C281.232 16.9897 283.85 20.1033 286.529 23.3418C286.825 23.6998 287.122 24.0594 287.42 24.4199C289.792 27.2919 292.212 30.2209 294.634 32.8428C297.354 35.7868 300.183 38.4618 303.101 40.304C306.026 42.1508 309.234 43.2806 312.615 42.7927C313.817 42.6192 314.651 41.5041 314.477 40.3021C314.304 39.1 313.189 38.2662 311.987 38.4397C310.017 38.7239 307.874 38.1164 305.449 36.585C303.016 35.0491 300.495 32.7051 297.864 29.858C295.53 27.3322 293.194 24.5034 290.809 21.6174C290.513 21.2583 290.215 20.8983 289.917 20.5379C287.246 17.3097 284.513 14.0531 281.76 11.2717C276.265 5.72111 270.525 1.8902 264.536 0.809885C258.414 -0.294479 252.41 1.53982 246.654 6.52349C241.408 11.0662 236.225 18.372 231.254 25.3797C230.918 25.8531 230.583 26.3251 230.25 26.7948C224.83 34.4198 219.697 41.4072 214.703 45.01C209.98 48.418 205.424 48.7278 200.749 46.8727C195.895 44.9461 190.826 40.636 185.548 34.5434C183.445 32.1154 181.346 29.4497 179.209 26.7361C178.67 26.0516 178.129 25.3641 177.584 24.6766C174.909 21.2979 172.167 17.9302 169.397 15.1325C166.649 12.3561 163.717 9.97722 160.62 8.748C157.406 7.47277 154.017 7.44583 150.684 9.37003C149.632 9.97716 149.271 11.322 149.878 12.3739C150.486 13.4257 151.83 13.7863 152.882 13.1791C154.899 12.0147 156.861 11.9878 158.998 12.836C161.251 13.7302 163.67 15.5981 166.272 18.2267C168.853 20.834 171.462 24.0296 174.137 27.4072C174.663 28.071 175.191 28.7425 175.722 29.4169C177.866 32.1388 180.047 34.9092 182.224 37.4231C187.648 43.6849 193.281 48.6405 199.127 50.9607C205.154 53.3525 211.299 52.8902 217.277 48.5767C222.985 44.458 228.552 36.7746 233.834 29.3428C234.126 28.9325 234.417 28.5228 234.707 28.1141C239.815 20.9176 244.707 14.0274 249.533 9.8485C254.478 5.5664 259.176 4.31212 263.755 5.13812Z" fill="#47DB99"/>
<path fill-rule="evenodd" clip-rule="evenodd" d="M286.741 30.5675C295.13 25.1482 303.392 25.1295 307.887 25.1295H312.301C313.516 25.1295 314.5 24.145 314.5 22.9305C314.5 21.716 313.516 20.7314 312.301 20.7314L307.845 20.7314C303.229 20.7314 293.862 20.7313 284.355 26.8731C281.989 28.4014 279.667 30.2886 277.434 32.1621C276.953 32.5655 276.477 32.9675 276.006 33.3662C274.251 34.8489 272.55 36.2864 270.842 37.5835C266.4 40.9565 262.683 42.7476 259.258 42.01C257.499 41.6312 255.58 40.5428 253.445 38.881C251.458 37.3352 249.462 35.4387 247.367 33.4489C247.223 33.3116 247.078 33.1738 246.932 33.0357C244.723 30.9383 242.397 28.7569 240.032 27.0447C237.681 25.3422 235.076 23.9403 232.277 23.639C229.43 23.3324 226.731 24.1945 224.255 25.6023C221.788 27.0044 219.408 29.0233 217.13 31.2479C214.888 33.4359 212.658 35.9117 210.481 38.3278L210.356 38.4659C208.119 40.949 205.937 43.365 203.759 45.4754C194.991 53.9721 187.105 57.0356 179.406 53.7196C175.345 51.9708 171.148 48.3783 167.306 44.3338C163.796 40.6399 160.74 36.7403 158.489 33.8681C158.299 33.6259 158.115 33.391 157.936 33.1641L153.532 27.3869C152.795 26.4212 151.416 26.2352 150.45 26.9716C149.484 27.708 149.298 29.0878 150.035 30.0536L154.458 35.8561L154.468 35.8686C154.65 36.1001 154.839 36.3417 155.036 36.5926C157.278 39.4538 160.457 43.5098 164.117 47.3631C168.067 51.5208 172.765 55.648 177.666 57.7591C187.892 62.1628 197.663 57.5066 206.819 48.6339C209.123 46.4019 211.405 43.8725 213.623 41.4101L213.699 41.3259C215.912 38.8699 218.062 36.4836 220.202 34.3949C222.371 32.2771 224.438 30.5568 226.428 29.4259C228.407 28.3006 230.173 27.8359 231.807 28.0118C233.489 28.1929 235.348 29.0828 237.453 30.607C239.545 32.1214 241.667 34.1014 243.905 36.2257C244.062 36.3749 244.22 36.5249 244.378 36.6754C246.43 38.6251 248.578 40.6667 250.744 42.352C253.065 44.158 255.61 45.7233 258.332 46.3095C263.869 47.5019 269.048 44.4681 273.501 41.0863C275.31 39.7127 277.126 38.1777 278.892 36.6853C279.352 36.2965 279.809 35.9106 280.261 35.5313C282.484 33.6655 284.626 31.9341 286.741 30.5675Z" fill="#2C73FB"/>
</svg>
