<svg width="118" height="42" viewBox="0 0 118 42" fill="none" xmlns="http://www.w3.org/2000/svg">
<path fill-rule="evenodd" clip-rule="evenodd" d="M31.9516 15.4541C32.8381 12.389 36.0575 9.91194 40.2339 9.91194C44.4104 9.91194 47.6298 12.389 48.5163 15.4541L31.9516 15.4541ZM31.9516 18.8646C32.8381 21.9296 36.0575 24.4067 40.2339 24.4067C43.0351 24.4067 45.4713 23.2598 47.0062 21.5564L49.5399 23.8395C47.3276 26.2946 43.9546 27.8173 40.2339 27.8173C33.8624 27.8173 28.2971 23.2523 28.2971 17.1593C28.2971 11.0663 33.8624 6.5014 40.2339 6.5014C46.6055 6.5014 52.1708 11.0663 52.1708 17.1593V18.8646H31.9516Z" fill="black"/>
<path fill-rule="evenodd" clip-rule="evenodd" d="M21.4768 17.1594C21.4768 20.6307 18.1014 24.1936 12.9504 24.1936C7.79942 24.1936 4.42407 20.6307 4.42407 17.1594C4.42407 13.688 7.79942 10.1251 12.9504 10.1251C18.1014 10.1251 21.4768 13.688 21.4768 17.1594ZM24.8873 17.1594C24.8873 22.9278 19.543 27.6041 12.9504 27.6041C6.35786 27.6041 1.01353 22.9278 1.01353 17.1594C1.01353 14.228 2.20142 11.7465 4.42407 9.84953C6.57528 8.01356 9.70798 6.71458 12.9504 6.71458C19.543 6.71458 24.8873 11.3909 24.8873 17.1594Z" fill="black"/>
<path fill-rule="evenodd" clip-rule="evenodd" d="M1.01353 3.73036L1.01353 17.1594C1.01353 17.1594 1.50822 15.1042 2.0641 13.6574C2.61998 12.2106 4.42407 9.84953 4.42407 9.84953L4.42407 3.73036L1.01353 3.73036Z" fill="black"/>
<path fill-rule="evenodd" clip-rule="evenodd" d="M61.1239 0V26.858H57.7134V0H61.1239Z" fill="black"/>
<path d="M75.8277 26.9L65.4665 5.96864H69.3818L77.5466 22.8892L85.7114 5.96864H89.4835L79.17 26.9H75.8277Z" fill="black"/>
<path d="M108.098 18.8647V15.4542L115.613 15.4498L117.477 15.4542V18.8647H115.614C114.683 23.8221 109.764 27.6042 103.835 27.6042C97.2427 27.6042 91.8983 22.928 91.8983 17.1595C91.8983 11.391 97.2427 6.71469 103.835 6.71469C108.644 6.71469 112.788 9.20267 114.679 12.7877H110.492C109.001 11.2203 106.691 10.1252 103.835 10.1252C98.6842 10.1252 95.3089 13.6881 95.3089 17.1595C95.3089 20.6308 98.6842 24.1937 103.835 24.1937C108.138 24.1937 111.202 21.7072 112.094 18.8647H108.098Z" fill="black"/>
<path d="M0.799805 37.5624C0.799805 37.1073 0.891916 36.709 1.07614 36.3677C1.26036 36.0209 1.51231 35.7527 1.83199 35.563C2.15709 35.3734 2.52012 35.2786 2.92107 35.2786C3.26785 35.2786 3.59024 35.3598 3.88824 35.5224C4.18625 35.6795 4.41382 35.8881 4.57095 36.1482V33.7912H5.31868V39.8056H4.57095V38.9684C4.42466 39.2339 4.20792 39.4534 3.92075 39.6268C3.63358 39.7947 3.29765 39.8787 2.91295 39.8787C2.51741 39.8787 2.15709 39.7812 1.83199 39.5861C1.51231 39.3911 1.26036 39.1174 1.07614 38.7653C0.891916 38.4131 0.799805 38.0121 0.799805 37.5624ZM4.57095 37.5705C4.57095 37.2346 4.50322 36.942 4.36776 36.6927C4.23231 36.4435 4.04808 36.2539 3.8151 36.1238C3.58753 35.9884 3.33558 35.9206 3.05924 35.9206C2.78291 35.9206 2.53096 35.9857 2.30339 36.1157C2.07582 36.2457 1.8943 36.4354 1.75885 36.6846C1.62339 36.9339 1.55566 37.2265 1.55566 37.5624C1.55566 37.9037 1.62339 38.2018 1.75885 38.4564C1.8943 38.7057 2.07582 38.898 2.30339 39.0335C2.53096 39.1635 2.78291 39.2285 3.05924 39.2285C3.33558 39.2285 3.58753 39.1635 3.8151 39.0335C4.04808 38.898 4.23231 38.7057 4.36776 38.4564C4.50322 38.2018 4.57095 37.9065 4.57095 37.5705Z" fill="black"/>
<path d="M16.8498 37.408C16.8498 37.5488 16.8417 37.6978 16.8254 37.855H13.2656C13.2927 38.2939 13.4417 38.6379 13.7126 38.8872C13.9889 39.131 14.3221 39.2529 14.7123 39.2529C15.0319 39.2529 15.2974 39.1798 15.5087 39.0335C15.7255 38.8817 15.8772 38.6813 15.9639 38.432H16.7604C16.6412 38.8601 16.4028 39.2096 16.0452 39.4805C15.6876 39.746 15.2432 39.8787 14.7123 39.8787C14.2896 39.8787 13.9103 39.7839 13.5744 39.5943C13.2439 39.4046 12.9838 39.1364 12.7942 38.7896C12.6045 38.4374 12.5097 38.0311 12.5097 37.5705C12.5097 37.11 12.6018 36.7063 12.786 36.3595C12.9703 36.0128 13.2276 35.7473 13.5582 35.563C13.8941 35.3734 14.2788 35.2786 14.7123 35.2786C15.1349 35.2786 15.5087 35.3707 15.8338 35.5549C16.1589 35.7391 16.4082 35.9938 16.5816 36.3189C16.7604 36.6386 16.8498 37.0016 16.8498 37.408ZM16.0858 37.2535C16.0858 36.9718 16.0235 36.7307 15.8989 36.5302C15.7742 36.3243 15.6036 36.1699 15.3868 36.0669C15.1755 35.9586 14.9398 35.9044 14.6797 35.9044C14.3059 35.9044 13.9862 36.0236 13.7207 36.262C13.4606 36.5004 13.3116 36.8309 13.2737 37.2535H16.0858Z" fill="black"/>
<path d="M25.6203 39.8787C25.2789 39.8787 24.9728 39.8218 24.7019 39.708C24.431 39.5888 24.2169 39.4263 24.0598 39.2204C23.9027 39.0091 23.816 38.768 23.7997 38.497H24.5637C24.5854 38.7192 24.6883 38.9007 24.8725 39.0416C25.0622 39.1825 25.3087 39.2529 25.6121 39.2529C25.8939 39.2529 26.116 39.1906 26.2786 39.066C26.4411 38.9413 26.5224 38.7842 26.5224 38.5946C26.5224 38.3995 26.4357 38.2559 26.2623 38.1638C26.089 38.0663 25.8207 37.9715 25.4577 37.8794C25.1272 37.7927 24.8563 37.706 24.645 37.6193C24.4391 37.5272 24.2603 37.3944 24.1086 37.221C23.9623 37.0422 23.8891 36.8092 23.8891 36.5221C23.8891 36.2945 23.9568 36.0859 24.0923 35.8963C24.2278 35.7066 24.4201 35.5576 24.6694 35.4492C24.9186 35.3355 25.2031 35.2786 25.5227 35.2786C26.0158 35.2786 26.4141 35.4032 26.7175 35.6524C27.0209 35.9017 27.1835 36.243 27.2051 36.6765H26.4655C26.4493 36.4435 26.3545 36.2566 26.1811 36.1157C26.0131 35.9748 25.7855 35.9044 25.4984 35.9044C25.2329 35.9044 25.0215 35.9613 24.8644 36.0751C24.7073 36.1888 24.6287 36.3378 24.6287 36.5221C24.6287 36.6684 24.6748 36.7903 24.7669 36.8878C24.8644 36.9799 24.9836 37.0558 25.1245 37.1154C25.2708 37.1696 25.4713 37.2319 25.7259 37.3023C26.0456 37.389 26.3057 37.4757 26.5062 37.5624C26.7066 37.6437 26.8773 37.7683 27.0182 37.9363C27.1645 38.1042 27.2403 38.3237 27.2458 38.5946C27.2458 38.8384 27.178 39.0578 27.0426 39.2529C26.9071 39.448 26.7148 39.6024 26.4655 39.7162C26.2217 39.8245 25.94 39.8787 25.6203 39.8787Z" fill="black"/>
<path d="M34.8893 34.6284C34.7485 34.6284 34.6292 34.5796 34.5317 34.4821C34.4342 34.3845 34.3854 34.2653 34.3854 34.1245C34.3854 33.9836 34.4342 33.8644 34.5317 33.7669C34.6292 33.6693 34.7485 33.6206 34.8893 33.6206C35.0248 33.6206 35.1386 33.6693 35.2307 33.7669C35.3282 33.8644 35.377 33.9836 35.377 34.1245C35.377 34.2653 35.3282 34.3845 35.2307 34.4821C35.1386 34.5796 35.0248 34.6284 34.8893 34.6284ZM35.2469 35.3517V39.8056H34.5073V35.3517H35.2469Z" fill="black"/>
<path d="M44.5618 35.2786C44.9465 35.2786 45.2824 35.3626 45.5696 35.5305C45.8622 35.6985 46.0789 35.9098 46.2198 36.1645V35.3517H46.9675V39.9031C46.9675 40.3095 46.8808 40.6698 46.7074 40.9841C46.534 41.3037 46.2848 41.553 45.9597 41.7318C45.64 41.9106 45.2662 42 44.8381 42C44.2529 42 43.7653 41.8618 43.3752 41.5855C42.9851 41.3092 42.7548 40.9326 42.6843 40.4558H43.4158C43.4971 40.7267 43.665 40.9434 43.9197 41.106C44.1744 41.2739 44.4805 41.3579 44.8381 41.3579C45.2445 41.3579 45.575 41.2306 45.8297 40.9759C46.0897 40.7213 46.2198 40.3637 46.2198 39.9031V38.9684C46.0735 39.2285 45.8568 39.4453 45.5696 39.6186C45.2824 39.792 44.9465 39.8787 44.5618 39.8787C44.1662 39.8787 43.8059 39.7812 43.4808 39.5861C43.1611 39.3911 42.9092 39.1174 42.725 38.7653C42.5407 38.4131 42.4486 38.0121 42.4486 37.5624C42.4486 37.1073 42.5407 36.709 42.725 36.3677C42.9092 36.0209 43.1611 35.7527 43.4808 35.563C43.8059 35.3734 44.1662 35.2786 44.5618 35.2786ZM46.2198 37.5705C46.2198 37.2346 46.1521 36.942 46.0166 36.6927C45.8811 36.4435 45.6969 36.2539 45.4639 36.1238C45.2364 35.9884 44.9844 35.9206 44.7081 35.9206C44.4317 35.9206 44.1798 35.9857 43.9522 36.1157C43.7247 36.2457 43.5431 36.4354 43.4077 36.6846C43.2722 36.9339 43.2045 37.2265 43.2045 37.5624C43.2045 37.9037 43.2722 38.2018 43.4077 38.4564C43.5431 38.7057 43.7247 38.898 43.9522 39.0335C44.1798 39.1635 44.4317 39.2285 44.7081 39.2285C44.9844 39.2285 45.2364 39.1635 45.4639 39.0335C45.6969 38.898 45.8811 38.7057 46.0166 38.4564C46.1521 38.2018 46.2198 37.9065 46.2198 37.5705Z" fill="black"/>
<path d="M56.6049 35.2704C57.1467 35.2704 57.5856 35.4357 57.9216 35.7662C58.2575 36.0913 58.4255 36.5627 58.4255 37.1804V39.8056H57.694V37.2861C57.694 36.8418 57.5829 36.5031 57.3608 36.2701C57.1386 36.0317 56.8352 35.9125 56.4505 35.9125C56.0604 35.9125 55.7488 36.0344 55.5158 36.2783C55.2883 36.5221 55.1745 36.877 55.1745 37.3429V39.8056H54.4349V35.3517H55.1745V35.9857C55.3208 35.7581 55.5185 35.582 55.7678 35.4574C56.0224 35.3328 56.3015 35.2704 56.6049 35.2704Z" fill="black"/>
<path d="M75.1376 35.9613V38.5865C75.1376 38.8032 75.1836 38.9576 75.2757 39.0497C75.3678 39.1364 75.5277 39.1798 75.7553 39.1798H76.2998V39.8056H75.6333C75.2215 39.8056 74.9127 39.7108 74.7068 39.5211C74.5009 39.3315 74.398 39.0199 74.398 38.5865V35.9613H73.8209V35.3517H74.398V34.2301H75.1376V35.3517H76.2998V35.9613H75.1376Z" fill="black"/>
<path d="M87.4772 37.408C87.4772 37.5488 87.469 37.6978 87.4528 37.855H83.8929C83.92 38.2939 84.069 38.6379 84.34 38.8872C84.6163 39.131 84.9495 39.2529 85.3396 39.2529C85.6593 39.2529 85.9248 39.1798 86.1361 39.0335C86.3529 38.8817 86.5046 38.6813 86.5913 38.432H87.3878C87.2686 38.8601 87.0301 39.2096 86.6725 39.4805C86.3149 39.746 85.8706 39.8787 85.3396 39.8787C84.917 39.8787 84.5377 39.7839 84.2018 39.5943C83.8713 39.4046 83.6112 39.1364 83.4216 38.7896C83.2319 38.4374 83.1371 38.0311 83.1371 37.5705C83.1371 37.11 83.2292 36.7063 83.4134 36.3595C83.5976 36.0128 83.855 35.7473 84.1855 35.563C84.5215 35.3734 84.9062 35.2786 85.3396 35.2786C85.7623 35.2786 86.1361 35.3707 86.4612 35.5549C86.7863 35.7391 87.0356 35.9938 87.209 36.3189C87.3878 36.6386 87.4772 37.0016 87.4772 37.408ZM86.7132 37.2535C86.7132 36.9718 86.6509 36.7307 86.5263 36.5302C86.4016 36.3243 86.231 36.1699 86.0142 36.0669C85.8029 35.9586 85.5672 35.9044 85.3071 35.9044C84.9333 35.9044 84.6136 36.0236 84.3481 36.262C84.088 36.5004 83.939 36.8309 83.9011 37.2535H86.7132Z" fill="black"/>
<path d="M94.3946 37.5624C94.3946 37.1073 94.4867 36.709 94.6709 36.3677C94.8551 36.0209 95.1071 35.7527 95.4268 35.563C95.7519 35.3734 96.1122 35.2786 96.5077 35.2786C96.8979 35.2786 97.2365 35.3626 97.5237 35.5305C97.8108 35.6985 98.0249 35.9098 98.1657 36.1645V35.3517H98.9135V39.8056H98.1657V38.9766C98.0194 39.2366 97.8 39.4534 97.5074 39.6268C97.2202 39.7947 96.8843 39.8787 96.4996 39.8787C96.1041 39.8787 95.7465 39.7812 95.4268 39.5861C95.1071 39.3911 94.8551 39.1174 94.6709 38.7653C94.4867 38.4131 94.3946 38.0121 94.3946 37.5624ZM98.1657 37.5705C98.1657 37.2346 98.098 36.942 97.9626 36.6927C97.8271 36.4435 97.6429 36.2539 97.4099 36.1238C97.1823 35.9884 96.9304 35.9206 96.654 35.9206C96.3777 35.9206 96.1257 35.9857 95.8982 36.1157C95.6706 36.2457 95.4891 36.4354 95.3536 36.6846C95.2182 36.9339 95.1504 37.2265 95.1504 37.5624C95.1504 37.9037 95.2182 38.2018 95.3536 38.4564C95.4891 38.7057 95.6706 38.898 95.8982 39.0335C96.1257 39.1635 96.3777 39.2285 96.654 39.2285C96.9304 39.2285 97.1823 39.1635 97.4099 39.0335C97.6429 38.898 97.8271 38.7057 97.9626 38.4564C98.098 38.2018 98.1657 37.9065 98.1657 37.5705Z" fill="black"/>
<path d="M111.737 35.2704C112.084 35.2704 112.392 35.3436 112.663 35.4899C112.934 35.6308 113.148 35.8448 113.305 36.132C113.463 36.4191 113.541 36.7686 113.541 37.1804V39.8056H112.81V37.2861C112.81 36.8418 112.699 36.5031 112.476 36.2701C112.26 36.0317 111.964 35.9125 111.591 35.9125C111.206 35.9125 110.9 36.0371 110.672 36.2864C110.445 36.5302 110.331 36.8851 110.331 37.3511V39.8056H109.599V37.2861C109.599 36.8418 109.488 36.5031 109.266 36.2701C109.049 36.0317 108.754 35.9125 108.38 35.9125C107.995 35.9125 107.689 36.0371 107.462 36.2864C107.234 36.5302 107.12 36.8851 107.12 37.3511V39.8056H106.381V35.3517H107.12V35.9938C107.267 35.7608 107.462 35.582 107.706 35.4574C107.955 35.3328 108.228 35.2704 108.526 35.2704C108.9 35.2704 109.231 35.3544 109.518 35.5224C109.805 35.6904 110.019 35.9369 110.16 36.262C110.285 35.9477 110.491 35.7039 110.778 35.5305C111.065 35.3571 111.385 35.2704 111.737 35.2704Z" fill="black"/>
</svg>
